<?xml version="1.0" encoding="utf-8"?>
<!-- Generator: Adobe Illustrator 21.0.0, SVG Export Plug-In . SVG Version: 6.00 Build 0)  -->
<svg version="1.1" id="Capa_1" xmlns="http://www.w3.org/2000/svg" xmlns:xlink="http://www.w3.org/1999/xlink" x="0px" y="0px"
	 viewBox="0 0 41 41" style="enable-background:new 0 0 41 41;" xml:space="preserve">
<style type="text/css">
	.st0{fill:#E4E8F1;}
	.st1{fill:#269AF2;}
</style>
<g>
	<path class="st0" d="M20.5,39.5c-10.5,0-19-8.5-19-19c0-10.5,8.5-19,19-19c10.5,0,19,8.5,19,19C39.5,31,31,39.5,20.5,39.5z"/>
	<path class="st0" d="M20.5,2C30.7,2,39,10.3,39,20.5S30.7,39,20.5,39S2,30.7,2,20.5S10.3,2,20.5,2 M20.5,1C9.7,1,1,9.7,1,20.5
		S9.7,40,20.5,40S40,31.3,40,20.5S31.3,1,20.5,1L20.5,1z"/>
</g>
<path class="st1" d="M28.1,27c2.2,0,3.9-1.8,3.9-3.9c0-1.9-1.3-3.4-3-3.8c0-3.9-3.2-7.1-7.2-7.1c-2.7,0-5.1,1.5-6.3,3.7
	c-0.4-0.2-0.8-0.3-1.2-0.3c-1.6,0-2.8,1.2-3,2.7c-2,0.4-3.6,2.2-3.6,4.3c0,2.4,2,4.4,4.4,4.4C12.7,27,27.6,27,28.1,27z"/>
</svg>
