<svg xmlns="http://www.w3.org/2000/svg" viewBox="0 0 140.432 99.799"><defs><style>.a{fill:#eab883;}.b{fill:#f7cf9c;}.c{fill:#efefef;}.d{fill:#ddd;}.e{fill:#e0a773;}</style></defs><g transform="translate(0 -74.069)"><path class="a" d="M214.621,95.88a124.769,124.769,0,0,1-16.777-10.9s-8.659-7.017-21.184-.718h0c-7.5,3.773-12.708,10.375-19.211,17.383a5.962,5.962,0,0,0,.8,8.821,8.075,8.075,0,0,0,10.279-.487l10.31-9.378a2.861,2.861,0,0,1,3.466.074,30.689,30.689,0,0,0,21.357,8.761l22.955,25.675a6.986,6.986,0,0,1,1.847,5.416h12.288V96.541C216.923,96.329,217.012,97.036,214.621,95.88Z" transform="translate(-113.111 -5.49)"/><path class="b" d="M147.355,138.37,124.4,112.7a30.69,30.69,0,0,1-21.357-8.761,2.861,2.861,0,0,0-3.466-.074l-10.31,9.378a8.075,8.075,0,0,1-10.279.487,5.962,5.962,0,0,1-.8-8.821c5.663-5.652,10.74-13.123,19.211-17.383-2.545-.743-7.951-2.152-10.722-.877-6.576,3.026-13.985,10.993-17.1,12.5-2.386,1.154-2.665.454-22.937.662v43.983H60.424c15.513,0,44.006,29.771,44.006,29.771h0l.612.691a7.007,7.007,0,0,0,10.872-8.79l.517.555a7.1,7.1,0,0,0,9.707.708,7.008,7.008,0,0,0,1.909-8.253,7,7,0,0,0,10.206-9.544,7.01,7.01,0,0,0,9.1-10.555Z" transform="translate(-33.854 -8.753)"/><g transform="translate(2.057 84.509)"><path class="c" d="M468.131,112.133a5.78,5.78,0,0,0-5.78,5.78v45.361a5.78,5.78,0,1,0,11.56,0V117.913A5.78,5.78,0,0,0,468.131,112.133Z" transform="translate(-337.595 -112.133)"/><path class="c" d="M13.281,112.133a5.78,5.78,0,0,0-5.78,5.78v45.361a5.78,5.78,0,0,0,11.56,0V117.913A5.78,5.78,0,0,0,13.281,112.133Z" transform="translate(-7.501 -112.133)"/></g><g transform="translate(2.057 109.501)"><path class="d" d="M468.131,209.03a5.78,5.78,0,0,1-5.78-5.78V229.4a5.78,5.78,0,0,0,11.561,0V203.25A5.78,5.78,0,0,1,468.131,209.03Z" transform="translate(-337.595 -203.25)"/><path class="d" d="M13.281,209.031a5.78,5.78,0,0,1-5.78-5.78V229.4a5.78,5.78,0,0,0,11.56,0V203.25A5.78,5.78,0,0,1,13.281,209.031Z" transform="translate(-7.501 -203.25)"/></g><g transform="translate(12.795 91.051)"><path class="a" d="M56.3,154.734a49.263,49.263,0,0,1,3.685-18.749H46.65v43.983H60.425a6.739,6.739,0,0,1,.955-3.4A49.207,49.207,0,0,1,56.3,154.734Z" transform="translate(-46.65 -135.985)"/><path class="a" d="M146.744,293.009a6.722,6.722,0,0,0-9.493-.505l-4.367,3.925-1.045.94a6.722,6.722,0,0,0,8.988,10l5.412-4.865A6.722,6.722,0,0,0,146.744,293.009Z" transform="translate(-106.856 -248.324)"/><path class="a" d="M179.513,329.46a6.722,6.722,0,0,0-9.493-.5l-5.412,4.865a6.722,6.722,0,1,0,8.988,10l5.412-4.865A6.722,6.722,0,0,0,179.513,329.46Z" transform="translate(-130.637 -274.777)"/><path class="a" d="M212.281,365.912a6.722,6.722,0,0,0-9.493-.5l-5.412,4.865a6.722,6.722,0,1,0,8.988,10l5.412-4.865A6.722,6.722,0,0,0,212.281,365.912Z" transform="translate(-154.418 -301.231)"/><path class="a" d="M113.976,256.558a6.722,6.722,0,0,0-9.493-.5l-5.412,4.865a6.722,6.722,0,0,0,8.988,10l1.045-.94,1.9-1.706,2.469-2.219A6.723,6.723,0,0,0,113.976,256.558Z" transform="translate(-83.076 -221.87)"/></g><g transform="translate(26.562 125.099)"><path class="e" d="M104.463,269.3a6.721,6.721,0,0,1,.18-9.178c-.231.194.592-.542-5.572,5a6.722,6.722,0,1,0,8.988,10l1.045-.94,1.9-1.706c2.549-2.3,2.511-2.241,2.785-2.524A6.72,6.72,0,0,1,104.463,269.3Z" transform="translate(-96.843 -260.121)"/><path class="e" d="M137.231,305.75a6.721,6.721,0,0,1,.18-9.178c-.31.26.169-.155-2.629,2.354l-2.943,2.646a6.722,6.722,0,0,0,8.988,10l2.943-2.646c2.549-2.3,2.511-2.241,2.785-2.525A6.72,6.72,0,0,1,137.231,305.75Z" transform="translate(-120.623 -286.574)"/><path class="e" d="M170,342.2a6.721,6.721,0,0,1,.18-9.178c-.22.184-5.352,4.8-5.572,5a6.722,6.722,0,0,0,8.988,10c.533-.479,5.52-4.955,5.728-5.17A6.72,6.72,0,0,1,170,342.2Z" transform="translate(-144.404 -313.028)"/><path class="e" d="M202.768,378.654a6.721,6.721,0,0,1,.18-9.178c-.22.184-5.352,4.8-5.572,5a6.722,6.722,0,1,0,8.988,10c5.911-5.314,5.511-4.946,5.728-5.17A6.721,6.721,0,0,1,202.768,378.654Z" transform="translate(-168.185 -339.482)"/></g><path d="M138.374,120.976a2.057,2.057,0,0,0,2.057-2.057V90.29a7.837,7.837,0,0,0-15.566-1.3c-21.321-.154-20.8.348-22.459-.456a88.291,88.291,0,0,1-8.089-4.8,2.057,2.057,0,1,0-2.247,3.447c7.469,4.869,9.64,5.926,12.331,5.926h20.354v39.869h-7.43a9.055,9.055,0,0,0-2.3-4.745c-25.216-28.405-23.333-26.326-24.437-26.346a28.969,28.969,0,0,1-19.858-8.073,4.914,4.914,0,0,0-6.386-.227l-10.31,9.378a6.014,6.014,0,0,1-4.276,1.56c-4.486-.166-6.284-4.41-3.907-6.975,5.941-6.414,7.323-7.9,7.561-8.159-.063.068-.155.166.038-.044,5.961-6.474,10.832-8.608,11.029-8.74,6.261-3.148,13.67-3.572,19.536.922a2.057,2.057,0,0,0,2.5-3.266C80.4,73.575,71.933,72.54,63.355,76.576c-5.282-1.463-9.015-1.645-11.388-.554C45.189,79.141,37.5,87.248,34.835,88.537c-1.673.81-1.593.307-19.269.456A7.837,7.837,0,0,0,0,90.29v6.4a2.057,2.057,0,1,0,4.114,0v-6.4a3.723,3.723,0,0,1,7.446,0V135.65a3.723,3.723,0,1,1-7.446,0v-28.63a2.057,2.057,0,1,0-4.114,0v28.63a7.837,7.837,0,0,0,15.54,1.441h9.2a8.762,8.762,0,0,0,8.847,6.775,8.765,8.765,0,0,0,8.988,10,8.764,8.764,0,0,0,8.988,10c-1.156,8.214,8.582,13.129,14.557,7.758l4.389-3.945a9.06,9.06,0,0,0,14.846-6.394,9.012,9.012,0,0,0,11.469-7.893,9.045,9.045,0,0,0,11.129-9.939,9.042,9.042,0,0,0,9.08-6.357h7.863a7.837,7.837,0,0,0,15.54-1.441v-6.872a2.057,2.057,0,1,0-4.114,0v6.872a3.723,3.723,0,0,1-7.446,0V90.29a3.723,3.723,0,1,1,7.446,0v28.63A2.056,2.056,0,0,0,138.374,120.976ZM28.831,133.731a4.678,4.678,0,0,1,1.335-2.1c5.381-4.836,5.828-5.5,7.3-5.894a4.666,4.666,0,0,1,4.347,7.97L36.4,138.567A4.665,4.665,0,0,1,28.831,133.731ZM38.8,148.214a4.671,4.671,0,0,1,.351-6.588l5.412-4.865a4.676,4.676,0,0,1,6.587.35h0a4.677,4.677,0,0,1-.006,6.244c-.3.332-.048.066-5.756,5.209A4.67,4.67,0,0,1,38.8,148.214Zm8.988,10a4.671,4.671,0,0,1,.351-6.588c5.69-5.1,6-5.712,7.788-6a4.671,4.671,0,0,1,4.211,1.484h0a4.671,4.671,0,0,1-.35,6.588l-5.412,4.865A4.671,4.671,0,0,1,47.79,158.212Zm21.272,5.2c-.314.335.026-.009-5.7,5.148a4.665,4.665,0,1,1-6.237-6.938c5.527-4.946,5.925-5.661,7.673-5.983a4.632,4.632,0,0,1,4.326,1.469h0A4.684,4.684,0,0,1,69.062,163.412Zm36.505-24.933a2.059,2.059,0,0,0-2.764,2.992,4.946,4.946,0,0,1-7.208,6.741,2.059,2.059,0,0,0-3.28,2.346,4.953,4.953,0,0,1-8.234,5.3l-.517-.555a2.057,2.057,0,0,0-3.191,2.582,4.95,4.95,0,0,1-7.109,6.732,8.806,8.806,0,0,0-7.889-13.176,8.793,8.793,0,0,0-9-9.987,8.776,8.776,0,0,0-8.985-10,8.746,8.746,0,0,0-2.165-7.094h0a8.777,8.777,0,0,0-12.4-.659c-5.62,5.065-5.467,4.884-5.926,5.37a8.724,8.724,0,0,0-2.133,3.9H15.675V93.108c16.686-.253,17.9.61,20.953-.867C40.1,90.56,47.4,82.652,53.687,79.761c.475-.219,1.7-.542,4.471-.126C51.637,84.253,47.75,89.9,42.828,94.753c-4.837,5.223-1.083,13.931,7.2,13.888a10.119,10.119,0,0,0,6.77-2.634L67,96.727a.8.8,0,0,1,.82,0c4.6,4.842,12.756,8.848,21.781,9.241,24.342,27.223,22.465,25.115,22.733,25.454a9.3,9.3,0,0,1,.965,3.43A4.951,4.951,0,0,1,105.568,138.479Z"/><path d="M194.72,129.809Z" transform="translate(-141.312 -40.419)"/></g></svg>