<svg xmlns="http://www.w3.org/2000/svg" viewBox="0 0 112.684 108.928"><defs><style>.a{fill:#29485a;}.b{fill:#f59130;}.c{fill:#e6e6e6;}.d{fill:#24dbdb;}.e{fill:#e6e5e5;}</style></defs><g transform="translate(0 -8)"><path class="a" d="M11.756,344H113.172a3.767,3.767,0,0,1,3.756,3.756v11.268a3.767,3.767,0,0,1-3.756,3.756H11.756A3.767,3.767,0,0,1,8,359.024V347.756A3.767,3.767,0,0,1,11.756,344Z" transform="translate(-6.122 -257.121)"/><circle class="b" cx="1.878" cy="1.878" r="1.878" transform="translate(95.781 94.391)"/><path class="c" d="M93.976,379.756h-60.1a1.878,1.878,0,0,1,0-3.756h60.1a1.878,1.878,0,0,1,0,3.756Z" transform="translate(-24.488 -281.609)"/><path class="b" d="M329.39,379.756h-7.512a1.878,1.878,0,0,1,0-3.756h7.512a1.878,1.878,0,1,1,0,3.756Z" transform="translate(-244.877 -281.609)"/><path class="d" d="M11.756,232H113.172a3.767,3.767,0,0,1,3.756,3.756v11.268a3.767,3.767,0,0,1-3.756,3.756H11.756A3.767,3.767,0,0,1,8,247.024V235.756A3.767,3.767,0,0,1,11.756,232Z" transform="translate(-6.122 -171.414)"/><circle class="b" cx="1.878" cy="1.878" r="1.878" transform="translate(95.781 68.098)"/><path class="c" d="M93.976,267.756h-60.1a1.878,1.878,0,1,1,0-3.756h60.1a1.878,1.878,0,1,1,0,3.756Z" transform="translate(-24.488 -195.902)"/><path class="b" d="M329.39,267.756h-7.512a1.878,1.878,0,0,1,0-3.756h7.512a1.878,1.878,0,1,1,0,3.756Z" transform="translate(-244.877 -195.902)"/><path class="a" d="M11.756,120H113.172a3.767,3.767,0,0,1,3.756,3.756v11.268a3.767,3.767,0,0,1-3.756,3.756H11.756A3.767,3.767,0,0,1,8,135.025V123.756A3.767,3.767,0,0,1,11.756,120Z" transform="translate(-6.122 -85.707)"/><circle class="b" cx="1.878" cy="1.878" r="1.878" transform="translate(95.781 41.805)"/><path class="c" d="M93.976,155.756h-60.1a1.878,1.878,0,1,1,0-3.756h60.1a1.878,1.878,0,1,1,0,3.756Z" transform="translate(-24.488 -110.195)"/><path class="b" d="M329.39,155.756h-7.512a1.878,1.878,0,0,1,0-3.756h7.512a1.878,1.878,0,1,1,0,3.756Z" transform="translate(-244.877 -110.195)"/><path class="d" d="M11.756,8H113.172a3.767,3.767,0,0,1,3.756,3.756V23.025a3.767,3.767,0,0,1-3.756,3.756H11.756A3.767,3.767,0,0,1,8,23.025V11.756A3.767,3.767,0,0,1,11.756,8Z" transform="translate(-6.122 0)"/><circle class="b" cx="1.878" cy="1.878" r="1.878" transform="translate(95.781 15.512)"/><path class="c" d="M93.976,43.756h-60.1a1.878,1.878,0,1,1,0-3.756h60.1a1.878,1.878,0,1,1,0,3.756Z" transform="translate(-24.488 -24.488)"/><path class="b" d="M329.39,43.756h-7.512a1.878,1.878,0,0,1,0-3.756h7.512a1.878,1.878,0,1,1,0,3.756Z" transform="translate(-244.877 -24.488)"/><path class="a" d="M110.806,459.756H1.878a1.878,1.878,0,0,1,0-3.756H110.806a1.878,1.878,0,0,1,0,3.756Z" transform="translate(0 -342.828)"/><path class="e" d="M32,88h3.756v7.512H32Z" transform="translate(-24.488 -61.219)"/><path class="e" d="M64,88h3.756v7.512H64Z" transform="translate(-48.975 -61.219)"/><path class="e" d="M96,88h3.756v7.512H96Z" transform="translate(-73.463 -61.219)"/><path class="e" d="M128,88h3.756v7.512H128Z" transform="translate(-97.951 -61.219)"/><path class="e" d="M344,200h3.756v7.512H344Z" transform="translate(-263.243 -146.926)"/><path class="e" d="M376,200h3.756v7.512H376Z" transform="translate(-287.731 -146.926)"/><path class="e" d="M408,200h3.756v7.512H408Z" transform="translate(-312.219 -146.926)"/><path class="e" d="M440,200h3.756v7.512H440Z" transform="translate(-336.706 -146.926)"/><path class="e" d="M344,424h3.756v7.512H344Z" transform="translate(-263.243 -318.341)"/><path class="e" d="M376,424h3.756v7.512H376Z" transform="translate(-287.731 -318.341)"/><path class="e" d="M408,424h3.756v7.512H408Z" transform="translate(-312.219 -318.341)"/><path class="e" d="M440,424h3.756v7.512H440Z" transform="translate(-336.706 -318.341)"/><path class="e" d="M32,312h3.756v7.512H32Z" transform="translate(-24.488 -232.634)"/><path class="e" d="M64,312h3.756v7.512H64Z" transform="translate(-48.975 -232.634)"/><path class="e" d="M96,312h3.756v7.512H96Z" transform="translate(-73.463 -232.634)"/><path class="e" d="M128,312h3.756v7.512H128Z" transform="translate(-97.951 -232.634)"/></g></svg>