<svg xmlns="http://www.w3.org/2000/svg" viewBox="0 0 131.083 107.106"><defs><style>.a{fill:#e59f23;}.b{fill:#d38b18;}.c{fill:#ffc850;}.d{fill:#f9b428;}.e{fill:#1a3340;}.f{fill:#24dbdb;}.g{fill:#e4eaf8;}</style></defs><g transform="translate(0 -46.85)"><path class="a" d="M80.467,67.165,53.56,47.58a3.883,3.883,0,0,0-4.532,0L1.587,82.066A3.857,3.857,0,0,0,0,85.189v64.9a3.835,3.835,0,0,0,3.84,3.84H98.7a3.835,3.835,0,0,0,3.84-3.84V113.71C78.522,113.71,65.362,85.676,80.467,67.165Z"/><path class="b" d="M5.274,150.09V87.033a3.893,3.893,0,0,1,1.587-3.123L54.3,49.423a4.528,4.528,0,0,1,1.05-.538L53.56,47.58a3.883,3.883,0,0,0-4.532,0L1.587,82.066A3.857,3.857,0,0,0,0,85.189v64.9a3.835,3.835,0,0,0,3.84,3.84H9.114A3.819,3.819,0,0,1,5.274,150.09Z" transform="translate(0 0)"/><path class="c" d="M60.521,316.091,15,353.752h94.856L64.386,316.091A3.048,3.048,0,0,0,60.521,316.091Z" transform="translate(-11.16 -199.796)"/><g transform="translate(0 85.189)"><path class="d" d="M15,460.215h5.274a3.872,3.872,0,0,1-3.2-1.715L15,460.215Z" transform="translate(-11.16 -391.448)"/><path class="d" d="M0,196.6v64.9a3.835,3.835,0,0,0,3.84,3.84l44.036-36.457Z" transform="translate(0 -196.6)"/></g><path class="a" d="M3.84,265.367l2.074-1.715a3.864,3.864,0,0,1-.64-2.151V200.159L0,196.6v64.9A3.857,3.857,0,0,0,3.84,265.367Z" transform="translate(0 -111.411)"/><path class="d" d="M237.845,258.9,213.6,275.26l44.036,36.457h0a3.872,3.872,0,0,0,3.866-3.866V271.471A28.5,28.5,0,0,1,237.845,258.9Z" transform="translate(-158.914 -157.761)"/><circle class="e" cx="28.802" cy="28.802" r="28.802" transform="translate(73.478 56.387)"/><path class="f" d="M292.374,112.9a28.806,28.806,0,0,1,26.14-28.674c-.87-.077-1.741-.128-2.637-.128a28.777,28.777,0,1,0,.026,57.554c.9,0,1.767-.051,2.637-.128A28.723,28.723,0,0,1,292.374,112.9Z" transform="translate(-213.596 -27.713)"/><path class="g" d="M339.639,117.435a20.288,20.288,0,0,0,.947,40.554,20.191,20.191,0,0,0,7.4-1.383,1.978,1.978,0,0,0-1.434-3.687A16.311,16.311,0,0,1,324.3,136.944a16.33,16.33,0,0,1,32.643.768c0,5.581-1.587,5.837-3.149,5.991a3.089,3.089,0,0,1-3.2-3.277v-2.739a9.985,9.985,0,1,0-9.985,9.985,9.892,9.892,0,0,0,7.22-3.1,7.031,7.031,0,0,0,6.042,3.1h.179c6.068-.538,6.836-5.607,6.836-9.934A20.27,20.27,0,0,0,339.639,117.435Zm.973,26.242a6.016,6.016,0,1,1,6.016-6.016A6.01,6.01,0,0,1,340.612,143.677Z" transform="translate(-238.306 -52.497)"/></g></svg>