<svg xmlns="http://www.w3.org/2000/svg" viewBox="0 0 132.009 102.359"><defs><style>.a{fill:#694b4b;}.b{fill:#5a4146;}.c{fill:#785550;}.d{fill:#e6af78;}.e{fill:#eff2fa;}.f{fill:#d29b6e;}.g{fill:#e4eaf6;}.h{fill:#f0c087;}.i{fill:#5b5d6e;}.j{fill:#515262;}.k{fill:#b4e1fa;}.l{fill:#a0d2f0;}</style></defs><g transform="translate(0 -57.5)"><path class="a" d="M33.945,159.632c-21.179,0-18.83,25.755-18.734,44.418a1.993,1.993,0,0,0,.977,1.7,35.1,35.1,0,0,0,17.757,4.722A35.1,35.1,0,0,0,51.7,205.754a1.993,1.993,0,0,0,.977-1.7C52.775,185.387,55.123,159.632,33.945,159.632Z" transform="translate(-11.198 -75.799)"/><path class="b" d="M32.584,159.838c-19.7,1.1-17.464,26.117-17.369,44.365a1.992,1.992,0,0,0,.977,1.7,35.1,35.1,0,0,0,17.757,4.722L39.3,173.165" transform="translate(-11.203 -75.952)"/><path class="a" d="M51.151,159.632c-12.042,0-12.878,14.551-12.878,14.551,6.941-1.171,11.206,1.756,18.231-1.171l-5.352,37.465a35.1,35.1,0,0,0,17.757-4.722,1.993,1.993,0,0,0,.977-1.7C69.982,185.387,72.33,159.632,51.151,159.632Z" transform="translate(-28.405 -75.799)"/><path class="c" d="M128.057,208.234c.083-16.037,1.814-37.3-11.134-42.964-.226,1.173-.635,4.448.428,6.574,2.676,5.352,5.352,5.352,8.028,9.366,2.676,14.718-5.113,30.34-7.7,32.467h0a33.661,33.661,0,0,0,9.4-3.738A1.993,1.993,0,0,0,128.057,208.234Z" transform="translate(-86.577 -79.984)"/><path class="d" d="M43.022,316.915l-11.939-4.975a2.676,2.676,0,0,1-1.647-2.47v-3.233H16.056v3.233a2.676,2.676,0,0,1-1.647,2.47L2.47,316.915A4.014,4.014,0,0,0,0,320.621v5.352a2.676,2.676,0,0,0,2.676,2.676h40.14a2.676,2.676,0,0,0,2.676-2.676v-5.352A4.014,4.014,0,0,0,43.022,316.915Z" transform="translate(0 -184.605)"/><path class="e" d="M43.022,333.807,31.479,329l-8.732,3.769L14.014,329,2.47,333.807A4.014,4.014,0,0,0,0,337.513v5.352a2.676,2.676,0,0,0,2.676,2.676h40.14a2.676,2.676,0,0,0,2.676-2.676v-5.352A4.014,4.014,0,0,0,43.022,333.807Z" transform="translate(0 -201.497)"/><path class="f" d="M65.547,306.237H52.167v3.233a2.676,2.676,0,0,1-1.647,2.47l-1.865.777C62.926,316.356,65.547,306.237,65.547,306.237Z" transform="translate(-36.111 -184.605)"/><g transform="translate(0 125.311)"><path class="g" d="M6.522,355.432,1.151,351.16A4.005,4.005,0,0,0,0,353.961v5.352a2.676,2.676,0,0,0,2.676,2.676H8.028v-3.423A4.015,4.015,0,0,0,6.522,355.432Z" transform="translate(0 -343.257)"/><path class="g" d="M153.335,359.361v-5.352a4.005,4.005,0,0,0-1.134-2.785l-5.388,4.255a4.014,4.014,0,0,0-1.507,3.134v3.423h5.352A2.675,2.675,0,0,0,153.335,359.361Z" transform="translate(-107.843 -343.305)"/><path class="g" d="M84.572,353.723h-.4a1.137,1.137,0,0,1-1.137-1.137v-8.958h2.676v8.958A1.137,1.137,0,0,1,84.572,353.723Z" transform="translate(-61.625 -337.667)"/><path class="g" d="M57.41,326.467l-7.658-5.743a1.07,1.07,0,0,0-1.533.262l-1.513,2.27,4.7,6.573a1.07,1.07,0,0,0,1.54.214Z" transform="translate(-34.664 -320.509)"/><path class="g" d="M88.222,326.467l7.658-5.743a1.07,1.07,0,0,1,1.533.262l1.513,2.27-4.7,6.573a1.07,1.07,0,0,1-1.54.214Z" transform="translate(-65.476 -320.509)"/></g><path class="h" d="M57.119,206.339c-6.69,6.69-19.819,1.338-19.819,12.042l.831,7.885a5.353,5.353,0,0,0,2.731,4.194l7.618,4.232a4.014,4.014,0,0,0,3.9,0L60,230.459a5.351,5.351,0,0,0,2.731-4.194l.959-9.364a14.765,14.765,0,0,0,.06-2C63.247,211.492,58.457,209.015,57.119,206.339Z" transform="translate(-27.683 -110.464)"/><path class="d" d="M37.3,218.378l.831,7.885a5.353,5.353,0,0,0,2.731,4.194l7.618,4.232a4,4,0,0,0,2.724.407h0s-3.841-1.164-6.127-7.352c-.7-1.9-1.673-11.931-.836-13.157,1.653-2.424,10.871-2.676,13.6-7.173q-.2-.25-.372-.5l-.029-.041a5.089,5.089,0,0,1-.315-.536C50.429,213.027,37.3,207.674,37.3,218.378Z" transform="translate(-27.683 -110.462)"/><path class="g" d="M109.544,382.783h-3.479a2.275,2.275,0,0,0-2.275,2.275v.4h8.028v-.4A2.274,2.274,0,0,0,109.544,382.783Z" transform="translate(-77.031 -241.415)"/><path class="d" d="M388.384,302.371v-7.349h-18.9v7.349l9.448,8.4Z" transform="translate(-274.222 -176.282)"/><path class="e" d="M351.62,326.573l-12.991-3.057a2.084,2.084,0,0,1-.545-.219l-10.522,6.138L317.451,323a2.092,2.092,0,0,1-.956.516L303.5,326.573a4.2,4.2,0,0,0-3.238,4.088v8.222a2.1,2.1,0,0,0,2.1,2.1h50.392a2.1,2.1,0,0,0,2.1-2.1v-8.222A4.2,4.2,0,0,0,351.62,326.573Z" transform="translate(-222.849 -197.046)"/><path class="f" d="M369.487,295.022v7.754c11.9,4.288,18.9-6.444,18.9-6.444v-1.309Z" transform="translate(-274.222 -176.282)"/><path class="h" d="M353.2,201.37l.915,20.127a6.3,6.3,0,0,0,2.513,4.753l4.341,3.256a6.3,6.3,0,0,0,3.779,1.26h4.2a6.3,6.3,0,0,0,3.779-1.26l4.341-3.256a6.3,6.3,0,0,0,2.513-4.753l.915-20.127Z" transform="translate(-262.135 -106.776)"/><path class="d" d="M363.7,205.569c4.2,0,10.5-1.05,11.992-4.2H353.2l.915,20.127a6.3,6.3,0,0,0,2.513,4.753l4.341,3.256a6.3,6.3,0,0,0,3.779,1.26h2.1c-2.1,0-6.3-4.2-6.3-9.449v-12.6A3.352,3.352,0,0,1,363.7,205.569Z" transform="translate(-262.135 -106.776)"/><path class="g" d="M477.1,348.728l6.8-6.111a4.192,4.192,0,0,1,.9,2.6v8.222a2.1,2.1,0,0,1-2.1,2.1h-7.349v-2.908A5.249,5.249,0,0,1,477.1,348.728Z" transform="translate(-352.794 -211.605)"/><path class="i" d="M401.2,365.547h-5.249l.656-9.448h3.937Z" transform="translate(-293.865 -221.611)"/><path class="j" d="M401.2,347.955h-5.249v.606A2.543,2.543,0,0,0,398.5,351.1h.163a2.543,2.543,0,0,0,2.543-2.543v-.606Z" transform="translate(-293.865 -215.567)"/><g transform="translate(92.115 123.482)"><path class="g" d="M360.272,313.684l9.6,8.636a36.2,36.2,0,0,0-6,4.091,1.347,1.347,0,0,1-2.086-.472l-4.508-9.918,1.426-2.139A1.05,1.05,0,0,1,360.272,313.684Z" transform="translate(-357.27 -313.414)"/><path class="g" d="M415.729,313.684l-9.6,8.636a36.2,36.2,0,0,1,6,4.091,1.347,1.347,0,0,0,2.086-.472l4.508-9.918-1.426-2.139A1.05,1.05,0,0,0,415.729,313.684Z" transform="translate(-393.535 -313.414)"/></g><path class="c" d="M430.818,172.517l.984,6.955c4.493.9,5.14,7.949,5.233,9.963a2.072,2.072,0,0,0,.332,1.026l1.714,2.659s-.587-4.4,2.1-7.349C441.181,185.771,442.1,168.317,430.818,172.517Z" transform="translate(-319.74 -84.878)"/><path class="h" d="M454.617,244.789l-1.186,4.742a1.262,1.262,0,0,1-1.224.956h0a1.262,1.262,0,0,1-1.253-1.106l-.606-4.85a2.173,2.173,0,0,1,2.156-2.443h0A2.173,2.173,0,0,1,454.617,244.789Z" transform="translate(-334.222 -136.997)"/><path class="a" d="M344.859,159.284l1.553,1.061c-7.021,5.184-5.709,14.074-5.709,14.074,2.1,2.1,2.1,7.349,2.1,7.349l2.1-2.1s-.81-6.065,3.15-8.4c3.674-2.165,6.889-1.05,10.17-1.05,8.792,0,11.253-3.314,10.827-7.349-.221-2.088-3.413-6.437-11.548-6.3C354.218,156.627,348.053,157.622,344.859,159.284Z" transform="translate(-252.788 -73.526)"/><path class="b" d="M344.247,180.169a11.533,11.533,0,0,1,2.165-8.956c-7.021,5.184-5.709,14.074-5.709,14.074,2.1,2.1,2.1,7.349,2.1,7.349l2.1-2.1s-.81-6.065,3.149-8.4c3.674-2.165,6.889-1.05,10.17-1.05a25.817,25.817,0,0,0,3.786-.26C355.237,181.055,351.246,175.927,344.247,180.169Z" transform="translate(-252.788 -84.394)"/><path class="d" d="M345.121,244.789l1.186,4.742a1.262,1.262,0,0,0,1.225.956h0a1.262,1.262,0,0,0,1.253-1.106l.606-4.85a2.173,2.173,0,0,0-2.157-2.443h0A2.173,2.173,0,0,0,345.121,244.789Z" transform="translate(-256.09 -136.997)"/><path class="g" d="M433.84,384.6h-5.249a2.1,2.1,0,0,0-2.1,2.1h9.448A2.1,2.1,0,0,0,433.84,384.6Z" transform="translate(-316.529 -242.766)"/><path class="a" d="M163.884,57.5c-36,0-32.012,43.783-31.847,75.511a3.388,3.388,0,0,0,1.66,2.9,60.768,60.768,0,0,0,60.374,0,3.388,3.388,0,0,0,1.66-2.9C195.9,101.283,199.887,57.5,163.884,57.5Z" transform="translate(-97.839)"/><path class="b" d="M161.57,57.849c-33.485,1.877-29.688,44.4-29.527,75.421a3.388,3.388,0,0,0,1.66,2.9,59.676,59.676,0,0,0,30.187,8.028l9.1-63.69" transform="translate(-97.846 -0.259)"/><path class="a" d="M193.134,57.5c-20.472,0-21.893,24.737-21.893,24.737,11.8-1.99,19.05,2.985,30.992-1.99l-9.1,63.69a59.676,59.676,0,0,0,30.187-8.028,3.388,3.388,0,0,0,1.66-2.9C225.146,101.283,229.138,57.5,193.134,57.5Z" transform="translate(-127.09)"/><path class="c" d="M323.875,140.125c.141-27.263,3.084-63.4-18.927-73.039-.384,1.995-1.079,7.562.728,11.176,4.549,9.1,9.1,9.1,13.648,15.923,4.549,25.021-8.693,51.578-13.09,55.193h0a57.22,57.22,0,0,0,15.982-6.355A3.388,3.388,0,0,0,323.875,140.125Z" transform="translate(-225.983 -7.114)"/><path class="d" d="M179.315,324.882l-20.3-8.457a4.549,4.549,0,0,1-2.8-4.2v-5.5H133.473v5.5a4.55,4.55,0,0,1-2.8,4.2l-20.3,8.457a6.824,6.824,0,0,0-4.2,6.3v9.1a4.55,4.55,0,0,0,4.549,4.549h68.239a4.549,4.549,0,0,0,4.549-4.549v-9.1A6.823,6.823,0,0,0,179.315,324.882Z" transform="translate(-78.801 -184.97)"/><path class="k" d="M179.315,353.6l-19.624-8.177-14.845,6.407L130,345.423,110.376,353.6a6.824,6.824,0,0,0-4.2,6.3V369a4.55,4.55,0,0,0,4.549,4.549h68.239A4.549,4.549,0,0,0,183.514,369v-9.1A6.823,6.823,0,0,0,179.315,353.6Z" transform="translate(-78.801 -213.688)"/><path class="f" d="M217.607,306.728H194.861v5.5a4.55,4.55,0,0,1-2.8,4.2l-3.17,1.321C213.149,323.931,217.607,306.728,217.607,306.728Z" transform="translate(-140.189 -184.97)"/><g transform="translate(27.376 128.013)"><path class="l" d="M117.265,390.36l-9.13-7.262a6.809,6.809,0,0,0-1.956,4.762v9.1a4.549,4.549,0,0,0,4.549,4.549h9.1v-5.819A6.826,6.826,0,0,0,117.265,390.36Z" transform="translate(-106.179 -369.663)"/><path class="l" d="M366.847,397.04v-9.1a6.809,6.809,0,0,0-1.927-4.733l-9.16,7.234a6.824,6.824,0,0,0-2.561,5.329v5.819h9.1A4.549,4.549,0,0,0,366.847,397.04Z" transform="translate(-289.51 -369.744)"/><path class="l" d="M249.608,387.454h0a2.275,2.275,0,0,1-2.275-2.275V370.292h4.549V385.18A2.274,2.274,0,0,1,249.608,387.454Z" transform="translate(-210.939 -360.158)"/><path class="l" d="M203.774,341.117l-13.019-9.764a1.82,1.82,0,0,0-2.606.446l-2.572,3.859,7.982,11.174a1.82,1.82,0,0,0,2.617.363Z" transform="translate(-165.106 -330.989)"/><path class="l" d="M256.155,341.117l13.019-9.764a1.82,1.82,0,0,1,2.606.446l2.572,3.859-7.982,11.174a1.82,1.82,0,0,1-2.617.363Z" transform="translate(-217.487 -330.989)"/></g><path class="h" d="M203.28,136.9c-11.373,11.373-33.693,2.275-33.693,20.472l1.413,13.4a9.1,9.1,0,0,0,4.642,7.13l12.951,7.195a6.824,6.824,0,0,0,6.628,0l12.951-7.195a9.1,9.1,0,0,0,4.642-7.13l1.63-15.92a25.07,25.07,0,0,0,.1-3.405C213.7,145.661,205.554,141.449,203.28,136.9Z" transform="translate(-125.862 -58.928)"/><path class="d" d="M169.587,157.372l1.413,13.4a9.1,9.1,0,0,0,4.642,7.13l12.951,7.195a6.8,6.8,0,0,0,4.631.692h0s-6.53-1.979-10.416-12.5c-1.19-3.223-2.843-20.282-1.422-22.367,2.81-4.121,18.481-4.549,23.112-12.195q-.343-.426-.633-.853c-.016-.023-.034-.046-.05-.069a8.594,8.594,0,0,1-.536-.91C191.907,148.273,169.587,139.175,169.587,157.372Z" transform="translate(-125.863 -58.928)"/><path class="l" d="M294,436.856h-9.1a2.275,2.275,0,0,0-2.275,2.275v2.275H296.27v-2.275A2.275,2.275,0,0,0,294,436.856Z" transform="translate(-209.754 -281.547)"/></g></svg>