<svg xmlns="http://www.w3.org/2000/svg" viewBox="0 0 113.45 113.45"><defs><style>.a{fill:#24dbdb;}.b{fill:#1a3340;}</style></defs><path class="a" d="M253.151,232.7a5.154,5.154,0,0,0-5.163,5.163H196.426a5.163,5.163,0,0,0-10.326,0v20.629c0,10.68,18.125,15.466,36.1,15.466s36.118-4.786,36.118-15.466V237.863A5.154,5.154,0,0,0,253.151,232.7Z" transform="translate(-144.864 -181.138)"/><path class="a" d="M380.033,232.7a5.154,5.154,0,0,0-5.163,5.163H349.1v36.1c17.97,0,36.1-4.786,36.1-15.466V237.863A5.154,5.154,0,0,0,380.033,232.7Z" transform="translate(-271.746 -181.138)"/><path class="b" d="M253.151,139.6a5.154,5.154,0,0,0-5.163,5.163H196.426a5.163,5.163,0,1,0-10.326,0v20.629c0,10.68,18.125,15.466,36.1,15.466s36.118-4.786,36.118-15.466V144.763A5.168,5.168,0,0,0,253.151,139.6Z" transform="translate(-144.864 -108.667)"/><path class="b" d="M380.033,139.6a5.154,5.154,0,0,0-5.163,5.163H349.1v36.1c17.97,0,36.1-4.786,36.1-15.466V144.763A5.168,5.168,0,0,0,380.033,139.6Z" transform="translate(-271.746 -108.667)"/><path class="a" d="M253.229,46.5a5.154,5.154,0,0,0-5.163,5.163H196.5a5.152,5.152,0,1,0-10.3,0V72.292c0,10.68,18.125,15.466,36.1,15.466s36.1-4.786,36.1-15.466V51.663A5.168,5.168,0,0,0,253.229,46.5Z" transform="translate(-144.941 -36.196)"/><path class="b" d="M222.3,0c-17.97,0-36.1,4.786-36.1,15.466s18.125,15.466,36.1,15.466,36.1-4.786,36.1-15.466S240.266,0,222.3,0Z" transform="translate(-144.941)"/><path class="a" d="M380.033,46.5a5.154,5.154,0,0,0-5.163,5.163H349.1v36.1c17.97,0,36.1-4.786,36.1-15.466V51.663A5.168,5.168,0,0,0,380.033,46.5Z" transform="translate(-271.746 -36.196)"/><path class="b" d="M349.1,0V30.933c17.97,0,36.1-4.786,36.1-15.466S367.07,0,349.1,0Z" transform="translate(-271.746)"/><path class="a" d="M67.029,325.8a5.154,5.154,0,0,0-5.163,5.163H10.3a5.152,5.152,0,1,0-10.3,0v20.629c0,10.68,18.125,15.466,36.1,15.466s36.1-4.786,36.1-15.466V330.963A5.154,5.154,0,0,0,67.029,325.8Z" transform="translate(0 -253.609)"/><path class="a" d="M193.833,325.8a5.154,5.154,0,0,0-5.163,5.163H162.9v36.1c17.97,0,36.1-4.786,36.1-15.466V330.963A5.154,5.154,0,0,0,193.833,325.8Z" transform="translate(-126.804 -253.609)"/><path class="b" d="M67.029,232.7a5.154,5.154,0,0,0-5.163,5.163H10.3a5.152,5.152,0,1,0-10.3,0v20.629c0,10.68,18.125,15.466,36.1,15.466s36.1-4.786,36.1-15.466V237.863A5.154,5.154,0,0,0,67.029,232.7Z" transform="translate(0 -181.138)"/><path class="b" d="M193.833,232.7a5.154,5.154,0,0,0-5.163,5.163H162.9v36.1c17.97,0,36.1-4.786,36.1-15.466V237.863A5.154,5.154,0,0,0,193.833,232.7Z" transform="translate(-126.804 -181.138)"/><path class="a" d="M67.029,139.6a5.154,5.154,0,0,0-5.163,5.163H10.3a5.152,5.152,0,1,0-10.3,0v20.629c0,10.68,18.125,15.466,36.1,15.466s36.1-4.786,36.1-15.466V144.763A5.168,5.168,0,0,0,67.029,139.6Z" transform="translate(0 -108.667)"/><path class="b" d="M36.1,93.1C18.125,93.1,0,97.886,0,108.566s18.125,15.466,36.1,15.466,36.1-4.786,36.1-15.466S54.066,93.1,36.1,93.1Z" transform="translate(0 -72.471)"/><path class="a" d="M193.833,139.6a5.154,5.154,0,0,0-5.163,5.163H162.9v36.1c17.97,0,36.1-4.786,36.1-15.466V144.763A5.168,5.168,0,0,0,193.833,139.6Z" transform="translate(-126.804 -108.667)"/><path class="b" d="M162.9,93.1v30.933c17.97,0,36.1-4.786,36.1-15.466S180.87,93.1,162.9,93.1Z" transform="translate(-126.804 -72.471)"/></svg>