<svg xmlns="http://www.w3.org/2000/svg" viewBox="0 0 40 74.98"><defs><style>.a{fill:#02314b;}.b{fill:#d7e7f7;}.c{fill:#9cb5cc;}.d{fill:#fff;}.e{fill:#f8f9fc;}.f{fill:#012234;}.g{fill:#024462;}.h{fill:#0dd9d4;}.i{fill:#025a82;}.j{fill:#fa7564;}</style></defs><g transform="translate(-140 -18)"><path class="a" d="M170.9,23.8,160.929,18,140,30.078l.13,44.743,9.976,5.8,20.929-12.078Z"/><g transform="translate(141.972 64.373)"><g transform="translate(0)"><g transform="translate(19.772 5.933)"><path class="b" d="M274.639,349.43l-1.239-.717,17-9.813,1.239.717Z" transform="translate(-273.4 -338.9)"/></g><g transform="translate(17.001 18.06)"><path class="c" d="M258.03,414.6l-1.255-.734a.853.853,0,0,1-.375-.57l1.255.734a.8.8,0,0,0,.375.57Z" transform="translate(-256.4 -413.3)"/></g><g transform="translate(18.68 15.071)"><path class="d" d="M267.955,395.866l-1.255-.733a1.059,1.059,0,0,0,.114-.033l1.255.734a1.039,1.039,0,0,1-.114.033Z" transform="translate(-266.7 -395.077)"/><path class="e" d="M268.755,395.716l-1.255-.733a.825.825,0,0,1,.57.065l1.255.734a.838.838,0,0,0-.571-.065Z" transform="translate(-267.37 -394.959)"/></g><g transform="translate(16.985 15.501)"><path class="c" d="M257.555,402.1l-1.255-.734a3.276,3.276,0,0,1,.685-1.467l1.255.733a3.372,3.372,0,0,0-.685,1.467Z" transform="translate(-256.3 -399.525)"/><path class="c" d="M261.855,398.708l-1.255-.734a2.039,2.039,0,0,1,.375-.375l1.255.733a1.636,1.636,0,0,0-.375.375Z" transform="translate(-259.899 -397.6)"/></g><g transform="translate(18.011 0.359)"><path class="c" d="M263.9,320.56l-1.255-.717L262.6,304.7l1.255.733Z" transform="translate(-262.6 -304.7)"/></g><g transform="translate(18.011)"><path class="b" d="M263.855,303.592l-1.255-.734.636-.359,1.255.717Z" transform="translate(-262.6 -302.5)"/></g><g transform="translate(0 17.343)"><path class="b" d="M153.339,419.446l-1.239-.733,17-9.813,1.239.734Z" transform="translate(-152.1 -408.9)"/></g><g transform="translate(0 27.156)"><path class="c" d="M153.355,470.551l-1.255-.734V469.1l1.239.734Z" transform="translate(-152.1 -469.1)"/></g><g transform="translate(1.255 0.717)"><path class="e" d="M178.447,306.9l.049,15.143a.777.777,0,0,1,1.076.6l17-9.813v.717l-17.017,9.829a3.157,3.157,0,0,1-1.385,2.07c-.685.391-1.239.163-1.385-.473L159.8,334.789v-.717l16.985-9.813a3.257,3.257,0,0,1,1.06-1.842l-.049-15.143Z" transform="translate(-159.8 -306.9)"/></g></g></g><g transform="translate(140 18)"><g transform="translate(0 12.078)"><path class="f" d="M150.106,142.646l-9.976-5.8L140,92.1l9.992,5.8Z" transform="translate(-140 -92.1)"/></g><path class="g" d="M149.992,35.881,140,30.078,160.929,18l9.976,5.8Z" transform="translate(-140 -18)"/><g transform="translate(9.992 5.803)"><path class="a" d="M222.213,53.6l.13,44.743-20.929,12.078L201.3,65.678Z" transform="translate(-201.3 -53.6)"/></g></g><g transform="translate(151.182 26.036)"><g transform="translate(12.73 6.047)"><path class="a" d="M288.868,104.4l.016,2.51-2.184,1.255v-2.51Z" transform="translate(-286.7 -104.4)"/></g><g transform="translate(12.747 14.295)"><path class="a" d="M288.984,155v2.51l-2.168,1.255-.016-2.494Z" transform="translate(-286.8 -155)"/></g><g transform="translate(12.747 11.361)"><path class="a" d="M288.968,137l.016,2.51-2.184,1.255v-2.51Z" transform="translate(-286.8 -137)"/></g><g transform="translate(15.273 9.91)"><path class="a" d="M304.484,128.1v2.51l-2.184,1.255v-2.51Z" transform="translate(-302.3 -128.1)"/></g><g transform="translate(15.289 18.158)"><path class="a" d="M304.584,178.7l.016,2.494-2.184,1.271-.016-2.51Z" transform="translate(-302.4 -178.7)"/></g><g transform="translate(10.269 32.258)"><path class="a" d="M273.768,265.2l.016,2.51-2.184,1.255v-2.51Z" transform="translate(-271.6 -265.2)"/></g><g transform="translate(10.253 29.34)"><path class="a" d="M273.684,247.3v2.494l-2.184,1.255v-2.494Z" transform="translate(-271.5 -247.3)"/></g><g transform="translate(15.322 29.34)"><path class="a" d="M304.784,247.3v2.494l-2.168,1.271-.016-2.51Z" transform="translate(-302.6 -247.3)"/></g><g transform="translate(15.322 26.406)"><path class="a" d="M304.784,229.3v2.51l-2.184,1.255v-2.51Z" transform="translate(-302.6 -229.3)"/></g><g transform="translate(5.2 35.192)"><path class="a" d="M242.668,283.2l.016,2.494-2.184,1.271v-2.51Z" transform="translate(-240.5 -283.2)"/></g><g transform="translate(0)"><g transform="translate(12.795 30.807)"><path class="a" d="M289.284,256.3v2.494l-2.184,1.255v-2.494Z" transform="translate(-287.1 -256.3)"/></g><g transform="translate(12.779 27.873)"><path class="a" d="M289.184,238.3l.016,2.494-2.184,1.271-.016-2.51Z" transform="translate(-287 -238.3)"/></g><g transform="translate(7.694 22.543)"><path class="a" d="M257.984,205.6v2.51l-2.168,1.255-.016-2.51Z" transform="translate(-255.8 -205.6)"/></g><g transform="translate(1.516 29.672)"><path class="h" d="M218.911,249.477c.554-.326,1.011-.065,1.011.57a2.227,2.227,0,0,1-1.011,1.744c-.554.326-1.011.065-1.011-.57A2.3,2.3,0,0,1,218.911,249.477Z" transform="translate(-217.9 -249.336)"/></g><g transform="translate(0.081 32.877)"><path class="i" d="M227.633,269l.016,7.742-18.517,10.693-.033-7.742Z" transform="translate(-209.1 -269)"/></g><g transform="translate(1.532 34.774)"><path class="j" d="M219.011,280.777c.554-.326,1.011-.065,1.011.57a2.253,2.253,0,0,1-1.011,1.744c-.554.326-1.011.065-1.011-.57A2.253,2.253,0,0,1,219.011,280.777Z" transform="translate(-218 -280.636)"/></g><g transform="translate(0.065 24.743)"><path class="i" d="M209,229.793,227.517,219.1l.016,7.368L209.016,237.16Zm9.845-2.135v-2.51l-2.184,1.271v2.51l2.184-1.271Zm-2.543,1.467v-2.51l-2.184,1.255v2.51l2.184-1.255Zm7.612-4.4v-2.51l-2.2,1.271v2.51l2.2-1.271Zm2.526-1.451v-2.51l-2.184,1.255v2.51l2.184-1.255Zm-5.069,2.918v-2.51l-2.184,1.255v2.51l2.184-1.255Zm5.069,0v-2.51l-2.184,1.255v2.51l2.184-1.255Zm-7.6,4.4v-2.51l-2.184,1.255v2.51l2.184-1.255Zm5.069-2.934v-2.51L221.73,226.4v2.51l2.184-1.255Zm-7.6,4.385v-2.51l-2.184,1.255v2.51l2.184-1.255Zm5.069-2.918v-2.51l-2.184,1.255v2.51l2.184-1.255Zm-9.894,5.607a2.253,2.253,0,0,0,1.011-1.744c0-.636-.456-.9-1.011-.57a2.253,2.253,0,0,0-1.011,1.744c0,.636.456.9,1.011.57Zm0-3.13a2.253,2.253,0,0,0,1.011-1.744c0-.636-.456-.9-1.011-.57a2.253,2.253,0,0,0-1.011,1.744c0,.619.456.88,1.011.57Z" transform="translate(-209 -219.1)"/></g><g transform="translate(1.516 26.526)"><path class="j" d="M218.911,230.177c.554-.326,1.011-.065,1.011.57a2.227,2.227,0,0,1-1.011,1.744c-.554.326-1.011.065-1.011-.57A2.253,2.253,0,0,1,218.911,230.177Z" transform="translate(-217.9 -230.036)"/></g><g transform="translate(0.049 16.496)"><path class="i" d="M208.9,179.193,227.417,168.5l.016,7.368L208.916,186.56Zm9.845.782v-2.51l-2.184,1.255v2.51l2.184-1.255Zm-2.543,1.467v-2.51l-2.184,1.255v2.51l2.184-1.255Zm10.139-5.852v-2.51l-2.184,1.255v2.51l2.184-1.255Zm-2.526,1.467v-2.51L221.63,175.8v2.51l2.184-1.255Zm-2.543,1.467v-2.51l-2.184,1.255v2.51l2.184-1.255Zm-2.543-1.467v-2.51l-2.184,1.255v2.51l2.184-1.255Zm-2.527,1.451V176l-2.184,1.255v2.51l2.184-1.255Zm7.6-4.385v-2.51l-2.184,1.255v2.51l2.184-1.255Zm2.543-1.467v-2.51l-2.184,1.255v2.51l2.184-1.255Zm-5.069,2.934v-2.51l-2.184,1.255v2.51l2.184-1.255Zm-9.894,5.4a2.227,2.227,0,0,0,1.011-1.744c0-.636-.456-.9-1.011-.57a2.227,2.227,0,0,0-1.011,1.744c0,.636.456.9,1.011.57Zm.016,3.146a2.227,2.227,0,0,0,1.011-1.744c0-.636-.456-.9-1.011-.57a2.227,2.227,0,0,0-1.011,1.744c0,.636.456.9,1.011.571Z" transform="translate(-208.9 -168.5)"/></g><g transform="translate(15.306 21.092)"><path class="a" d="M304.684,196.7v2.494l-2.184,1.255v-2.494Z" transform="translate(-302.5 -196.7)"/></g><g transform="translate(12.779 22.543)"><path class="a" d="M289.168,205.6l.016,2.51L287,209.365v-2.51Z" transform="translate(-287 -205.6)"/></g><g transform="translate(10.236 24.01)"><path class="a" d="M273.584,214.6v2.51l-2.168,1.255-.016-2.51Z" transform="translate(-271.4 -214.6)"/></g><g transform="translate(12.763 19.625)"><path class="a" d="M289.084,187.7v2.494l-2.184,1.255v-2.494Z" transform="translate(-286.9 -187.7)"/></g><g transform="translate(5.183 32.258)"><path class="a" d="M242.584,265.2v2.51l-2.168,1.255-.016-2.51Z" transform="translate(-240.4 -265.2)"/></g><g transform="translate(1.548 37.92)"><path class="h" d="M219.111,300.077c.554-.326,1.011-.065,1.011.57a2.253,2.253,0,0,1-1.011,1.744c-.554.326-1.011.065-1.011-.57A2.253,2.253,0,0,1,219.111,300.077Z" transform="translate(-218.1 -299.936)"/></g><g transform="translate(7.677 17.229)"><path class="a" d="M257.884,173v2.494l-2.168,1.271-.016-2.51Z" transform="translate(-255.7 -173)"/></g><g transform="translate(5.134 15.746)"><path class="a" d="M242.284,163.9v2.51l-2.168,1.271-.016-2.51Z" transform="translate(-240.1 -163.9)"/></g><g transform="translate(1.5 21.424)"><path class="h" d="M218.811,198.877c.554-.326,1.011-.065,1.011.57a2.253,2.253,0,0,1-1.011,1.744c-.554.326-1.011.065-1.011-.57A2.2,2.2,0,0,1,218.811,198.877Z" transform="translate(-217.8 -198.736)"/></g><g transform="translate(0.016 8.248)"><path class="i" d="M208.7,128.593,227.217,117.9l.016,7.368L208.716,135.96Zm9.845-2.135v-2.51l-2.184,1.255v2.51l2.184-1.255ZM216,127.908V125.4l-2.184,1.255v2.51L216,127.908Zm7.612-4.385v-2.51l-2.184,1.255v2.51l2.184-1.255Zm2.527-1.451v-2.51l-2.184,1.255v2.51l2.184-1.255Zm-5.069,2.918v-2.51l-2.184,1.255v2.51l2.184-1.255Zm5.086,0v-2.51l-2.184,1.255v2.51l2.184-1.255Zm-7.612,4.385v-2.51l-2.184,1.255v2.51l2.184-1.255Zm5.069-2.918v-2.51L221.43,125.2v2.51l2.184-1.255Zm-7.6,4.385v-2.51l-2.184,1.255v2.51l2.184-1.255Zm5.069-2.918v-2.51l-2.184,1.255v2.51l2.184-1.255Zm-9.894,5.607a2.227,2.227,0,0,0,1.011-1.744c0-.652-.456-.9-1.011-.57a2.227,2.227,0,0,0-1.011,1.744c0,.636.456.88,1.011.57Zm0-3.146a2.227,2.227,0,0,0,1.011-1.744c0-.652-.456-.9-1.011-.571a2.227,2.227,0,0,0-1.011,1.744c0,.636.456.9,1.011.57Z" transform="translate(-208.7 -117.9)"/></g><g transform="translate(15.289 12.844)"><path class="a" d="M304.568,146.1l.016,2.494-2.184,1.255v-2.494Z" transform="translate(-302.4 -146.1)"/></g><g transform="translate(7.71 25.477)"><path class="a" d="M258.068,223.6l.016,2.494-2.184,1.271v-2.51Z" transform="translate(-255.9 -223.6)"/></g><g transform="translate(10.236 21.076)"><path class="a" d="M273.568,196.6l.016,2.51-2.184,1.255v-2.51Z" transform="translate(-271.4 -196.6)"/></g><g transform="translate(10.22 15.762)"><path class="a" d="M273.468,164l.016,2.51-2.184,1.255v-2.51Z" transform="translate(-271.3 -164)"/></g><g transform="translate(15.257 4.58)"><path class="a" d="M304.384,95.4v2.51l-2.168,1.255-.016-2.51Z" transform="translate(-302.2 -95.4)"/></g><g transform="translate(10.204 12.828)"><path class="a" d="M273.384,146v2.51l-2.168,1.255-.016-2.51Z" transform="translate(-271.2 -146)"/></g><g transform="translate(5.151 18.696)"><path class="a" d="M242.384,182v2.494l-2.184,1.255v-2.494Z" transform="translate(-240.2 -182)"/></g><g transform="translate(7.677 14.295)"><path class="a" d="M257.868,155l.016,2.51-2.184,1.255v-2.51Z" transform="translate(-255.7 -155)"/></g><g transform="translate(10.187 7.514)"><path class="a" d="M273.284,113.4v2.494l-2.168,1.271-.016-2.51Z" transform="translate(-271.1 -113.4)"/></g><g transform="translate(12.714 3.113)"><path class="a" d="M288.784,86.4v2.51l-2.168,1.255-.016-2.494Z" transform="translate(-286.6 -86.4)"/></g><g transform="translate(7.661 8.965)"><path class="a" d="M257.784,122.3v2.51l-2.184,1.255v-2.494Z" transform="translate(-255.6 -122.3)"/></g><g transform="translate(10.187 4.58)"><path class="a" d="M273.268,95.4l.016,2.51L271.1,99.165v-2.51Z" transform="translate(-271.1 -95.4)"/></g><g transform="translate(1.483 18.278)"><path class="j" d="M218.711,179.577c.554-.326,1.011-.065,1.011.571a2.253,2.253,0,0,1-1.011,1.744c-.554.326-1.011.065-1.011-.57A2.272,2.272,0,0,1,218.711,179.577Z" transform="translate(-217.7 -179.436)"/></g><g transform="translate(5.118 10.432)"><path class="a" d="M242.184,131.3l.016,2.51-2.184,1.255-.016-2.51Z" transform="translate(-240 -131.3)"/></g><g transform="translate(7.645 6.047)"><path class="a" d="M257.684,104.4v2.494l-2.168,1.271-.016-2.51Z" transform="translate(-255.5 -104.4)"/></g><g transform="translate(5.118 7.514)"><path class="a" d="M242.184,113.4v2.494L240,117.149v-2.494Z" transform="translate(-240 -113.4)"/></g><g transform="translate(1.483 13.16)"><path class="h" d="M218.711,148.177c.554-.326,1.011-.065,1.011.57a2.253,2.253,0,0,1-1.011,1.744c-.554.326-1.011.065-1.011-.57A2.209,2.209,0,0,1,218.711,148.177Z" transform="translate(-217.7 -148.036)"/></g><g transform="translate(1.467 10.03)"><path class="j" d="M218.611,128.977c.554-.326,1.011-.065,1.011.57a2.253,2.253,0,0,1-1.011,1.744c-.554.326-1.011.065-1.011-.57A2.2,2.2,0,0,1,218.611,128.977Z" transform="translate(-217.6 -128.836)"/></g><path class="i" d="M208.6,77.993,227.117,67.3l.016,7.368L208.616,85.36Zm14.9-5.069v-2.51l-2.184,1.255v2.51l2.184-1.255Zm-7.579,7.319v-2.51l-2.2,1.255V81.5l2.2-1.255Zm-.016-2.934V74.8l-2.184,1.255v2.51l2.184-1.255Zm2.543,1.467v-2.51l-2.184,1.255v2.51l2.184-1.255Zm-.016-2.934v-2.51l-2.184,1.255V77.1l2.184-1.255Zm5.086.016v-2.51L221.33,74.6v2.51l2.184-1.255Zm2.526-1.467V71.88l-2.184,1.255v2.51l2.184-1.255Zm0-2.934v-2.51L223.857,70.2v2.51l2.184-1.255Zm-5.069,5.852V74.8l-2.184,1.255v2.51l2.184-1.255Zm0-2.918V71.88l-2.184,1.255v2.51l2.184-1.255Zm-9.878,8.541a2.253,2.253,0,0,0,1.011-1.744c0-.652-.456-.9-1.011-.57a2.227,2.227,0,0,0-1.011,1.744c0,.636.456.9,1.011.571Zm-.016-3.146a2.253,2.253,0,0,0,1.011-1.744c0-.652-.456-.9-1.011-.571a2.227,2.227,0,0,0-1.011,1.744c0,.636.456.9,1.011.57Z" transform="translate(-208.6 -67.3)"/></g><g transform="translate(15.257 1.663)"><path class="a" d="M304.368,77.5l.016,2.494L302.2,81.249V78.755Z" transform="translate(-302.2 -77.5)"/></g><g transform="translate(5.167 26.927)"><path class="a" d="M242.484,232.5v2.51l-2.168,1.255-.016-2.494Z" transform="translate(-240.3 -232.5)"/></g><g transform="translate(5.167 24.01)"><path class="a" d="M242.468,214.6l.016,2.494-2.184,1.271v-2.51Z" transform="translate(-240.3 -214.6)"/></g><g transform="translate(7.726 33.725)"><path class="a" d="M258.184,274.2v2.51l-2.168,1.255-.016-2.51Z" transform="translate(-256 -274.2)"/></g><g transform="translate(7.726 30.791)"><path class="a" d="M258.168,256.2l.016,2.51L256,259.965v-2.494Z" transform="translate(-256 -256.2)"/></g></g></g></svg>