<svg xmlns="http://www.w3.org/2000/svg" viewBox="0 0 40 36.268"><defs><style>.a{fill:#ffca00;}.b{fill:#025a82;}.c{fill:#024462;}.d{fill:#d7e7f7;}.e{fill:#f8f9fc;}.f{fill:#fa7564;}.g{fill:#d43e3e;}.h{fill:#0dd9d4;}</style></defs><g transform="translate(-29.4 -44.109)"><g transform="translate(34.321 44.109)"><path class="a" d="M117.117,62.02c.319-.187.581-.037.591.337l.037,12.008a1.281,1.281,0,0,1-.581,1L98.228,86.29c-.319.187-.591.037-.591-.328L97.6,73.953a1.313,1.313,0,0,1,.581-1.012Z" transform="translate(-96.128 -60.268)"/><g transform="translate(1.291 15.591)"><path class="b" d="M129.485,229.559v.075c0,.009-.009.028-.009.038s-.009.028-.009.037-.009.019-.019.038-.009.028-.019.047-.009.019-.019.028-.019.028-.028.047l-.028.028a.317.317,0,0,1-.056.056l-.028.028c-.009.009-.028.019-.038.028s-.028.019-.047.037a.2.2,0,0,1-.047.028c-.019.019-.047.028-.066.047l-7.434,4.293v-.45l-1.631-.947,2.372-1.378v-.178l.15.094,3.225-1.875v-1.125l-1.509-.872-.347.2v-.4l-.506-.291-1-.581-1.744-1.012-.431.253v-.506l-1.509-.872-.337.2v-.394l-1.509-.872-1.565.909v.347l-.3-.169-1.565.909v.347l-.3-.169-1.566.909v.347l-.3-.169-1.556.909v.347l-.3-.169-1.566.909v.347l-.3-.169-1.566.909v.347l-.3-.169-1.566.909v.347l-.3-.169-1.566.909v.347l-.3-.169-1.566.909v1.125l.872.506-.375.216v-.394l-1.509-.872L97.8,234.5v1.125l1.509.872.337-.2v.394l1.509.872.337-.2v.394l1.509.872.337-.2v.394l1.509.872.347-.2v.4l1.509.872,3.309-1.922v-.225l.2.112,2.437-1.415v-.253l.225.131.891-.516v.431l1.64.956-6.075,3.506a.961.961,0,0,1-.2.094.133.133,0,0,1-.056.019.96.96,0,0,1-.131.037l-.122.028-.178.028h-.038a1.883,1.883,0,0,1-.234.009h-.037c-.075,0-.15-.009-.225-.009h-.037a1.473,1.473,0,0,1-.216-.038c-.009,0-.028-.009-.037-.009l-.2-.056c-.009,0-.019,0-.019-.009a2.254,2.254,0,0,1-.216-.1l-11.3-6.656a.675.675,0,0,1-.394-.562v1.125a.686.686,0,0,0,.394.562l11.333,6.59a1.38,1.38,0,0,0,.206.094h0a.033.033,0,0,1,.019.009c.047.019.094.028.141.047a.119.119,0,0,0,.056.009c.019,0,.028.009.047.009s.028.009.037.009a.722.722,0,0,0,.141.019.056.056,0,0,1,.037.009h.038c.019,0,.037.009.056.009.047,0,.094.009.131.009h.141c.047,0,.1-.009.15-.009h.009a.071.071,0,0,0,.037-.009c.047-.009.084-.009.122-.019a.405.405,0,0,0,.047-.009l.122-.028c.028-.009.047-.009.075-.019s.047-.019.066-.028.038-.009.056-.019a1.881,1.881,0,0,0,.2-.094l19.714-11.38c.019-.009.028-.019.047-.028s.019-.009.028-.019.028-.019.047-.028a.073.073,0,0,0,.037-.038c.009-.009.028-.019.038-.028s.009-.009.019-.009l.019-.019.056-.056c0-.009.009-.009.009-.019a.009.009,0,0,1,.009-.009c.009-.019.019-.028.028-.047a.02.02,0,0,1,.019-.019v-.009c.009-.019.009-.028.019-.047s.009-.019.009-.028v-.009a.084.084,0,0,0,.009-.047c0-.009.009-.019.009-.028v-.009a.1.1,0,0,1,.009-.047v-1.144Z" transform="translate(-95.698 -222.184)"/><path class="c" d="M129.068,217.247l-11.333-6.59a2.145,2.145,0,0,0-1.94,0L96.08,222.037a.6.6,0,0,0-.009,1.125l11.333,6.59a2.145,2.145,0,0,0,1.94,0l19.714-11.38C129.593,218.053,129.593,217.547,129.068,217.247Z" transform="translate(-95.675 -210.425)"/><g transform="translate(18.798 3.822)"><path class="d" d="M297.766,251.2l1.509.872-1.566.909-1.509-.872Z" transform="translate(-296.2 -251.2)"/></g><g transform="translate(21.207 4.563)"><path class="d" d="M323.466,259.1l1.5.872-1.556.909-1.509-.872Z" transform="translate(-321.9 -259.1)"/></g><g transform="translate(23.119 3.419)"><path class="d" d="M344.128,246.9l1.744,1.012,1,.572.506.3-2.634,1.528-1.509-.872.806-.469-1.744-1.012Z" transform="translate(-342.3 -246.9)"/></g><g transform="translate(19.454 5.585)"><path class="d" d="M304.756,270l1.509.872-1.565.909-1.5-.872Z" transform="translate(-303.2 -270)"/></g><g transform="translate(25.322 5.5)"><path class="d" d="M369.025,269.1l1.509.872-3.225,1.865-1.509-.862Z" transform="translate(-365.8 -269.1)"/></g><g transform="translate(22.726 7.46)"><path class="d" d="M340.547,290l1.509.872-2.447,1.415-1.509-.872Z" transform="translate(-338.1 -290)"/></g><g transform="translate(18.798 8.106)"><path class="d" d="M297.756,296.9l1.509.872-1.556.9L296.2,297.8Z" transform="translate(-296.2 -296.9)"/></g><g transform="translate(19.595 1.226)"><path class="d" d="M306.256,223.5l1.509.872-1.556.909-1.509-.872Z" transform="translate(-304.7 -223.5)"/></g><g transform="translate(17.729 2.304)"><path class="d" d="M286.365,235l1.509.872-1.566.909-1.509-.872Z" transform="translate(-284.8 -235)"/></g><g transform="translate(20.579 2.294)"><path class="d" d="M317.619,234.9l1.509.872-2.419,1.406-1.509-.872Z" transform="translate(-315.2 -234.9)"/></g><g transform="translate(15.873 3.382)"><path class="d" d="M266.565,246.5l1.5.872-1.556.909L265,247.409Z" transform="translate(-265 -246.5)"/></g><g transform="translate(14.017 4.469)"><path class="d" d="M246.756,258.1l1.509.872-1.565.9L245.2,259Z" transform="translate(-245.2 -258.1)"/></g><g transform="translate(17.026 4.854)"><path class="d" d="M278.856,262.2l1.509.872-1.556.909-1.509-.872Z" transform="translate(-277.3 -262.2)"/></g><g transform="translate(12.151 5.547)"><path class="d" d="M226.866,269.6l1.509.872-1.566.9L225.3,270.5Z" transform="translate(-225.3 -269.6)"/></g><g transform="translate(15.245 5.885)"><path class="d" d="M259.865,273.2l1.509.872-1.566.909-1.509-.872Z" transform="translate(-258.3 -273.2)"/></g><g transform="translate(22.294 6.072)"><path class="d" d="M335.056,275.2l1.509.872-1.565.909-1.5-.872Z" transform="translate(-333.5 -275.2)"/></g><g transform="translate(10.295 6.625)"><path class="d" d="M207.065,281.1l1.5.872-1.556.909-1.509-.872Z" transform="translate(-205.5 -281.1)"/></g><g transform="translate(17.692 6.607)"><path class="d" d="M285.966,280.9l1.5.872-1.556.909-1.509-.872Z" transform="translate(-284.4 -280.9)"/></g><g transform="translate(13.464 6.916)"><path class="d" d="M240.866,284.2l1.509.872-1.565.909-1.509-.872Z" transform="translate(-239.3 -284.2)"/></g><g transform="translate(20.532 7.094)"><path class="d" d="M316.266,286.1l1.509.872-1.565.909-1.509-.872Z" transform="translate(-314.7 -286.1)"/></g><g transform="translate(15.939 7.628)"><path class="d" d="M267.256,291.8l1.509.872-1.556.9L265.7,292.7Z" transform="translate(-265.7 -291.8)"/></g><g transform="translate(8.43 7.703)"><path class="d" d="M187.165,292.6l1.509.872-1.566.909-1.509-.872Z" transform="translate(-185.6 -292.6)"/></g><g transform="translate(11.692 7.947)"><path class="d" d="M221.966,295.2l1.5.872-1.556.909-1.509-.872Z" transform="translate(-220.4 -295.2)"/></g><g transform="translate(14.176 8.65)"><path class="d" d="M248.465,302.7l1.509.872-1.566.9L246.9,303.6Z" transform="translate(-246.9 -302.7)"/></g><g transform="translate(6.574 8.781)"><path class="d" d="M167.366,304.1l1.509.872-1.566.909-1.509-.872Z" transform="translate(-165.8 -304.1)"/></g><g transform="translate(9.911 8.978)"><path class="d" d="M202.965,306.2l1.509.872-1.566.909-1.509-.872Z" transform="translate(-201.4 -306.2)"/></g><g transform="translate(16.979 9.156)"><path class="d" d="M278.365,308.1l1.509.872-1.566.909-1.509-.872Z" transform="translate(-276.8 -308.1)"/></g><g transform="translate(12.423 9.663)"><path class="d" d="M229.756,313.5l1.509.872-1.556.909-1.509-.872Z" transform="translate(-228.2 -313.5)"/></g><g transform="translate(4.718 9.859)"><path class="d" d="M147.556,315.6l1.509.872-1.556.909L146,316.509Z" transform="translate(-146 -315.6)"/></g><g transform="translate(8.139 10.009)"><path class="d" d="M184.056,317.2l1.509.881-1.565.9-1.5-.872Z" transform="translate(-182.5 -317.2)"/></g><g transform="translate(15.245 10.169)"><path class="d" d="M259.856,318.9l1.509.872-1.556.9L258.3,319.8Z" transform="translate(-258.3 -318.9)"/></g><g transform="translate(10.661 10.684)"><path class="d" d="M210.965,324.4l1.509.872-1.566.909-1.509-.872Z" transform="translate(-209.4 -324.4)"/></g><g transform="translate(13.483 11.181)"><path class="d" d="M241.066,329.7l1.509.872-1.566.909-1.509-.872Z" transform="translate(-239.5 -329.7)"/></g><g transform="translate(2.149 11.35)"><path class="d" d="M120.166,331.5l1.5.872-1.556.909-1.509-.872Z" transform="translate(-118.6 -331.5)"/></g><g transform="translate(8.908 11.706)"><path class="d" d="M192.256,335.3l1.509.872-1.556.909-1.509-.872Z" transform="translate(-190.7 -335.3)"/></g><g transform="translate(15.704 8.969)"><path class="d" d="M270.062,306.1l1.509.872-6.862,3.984-1.509-.872Z" transform="translate(-263.2 -306.1)"/></g><g transform="translate(11.748 12.194)"><path class="d" d="M222.565,340.5l1.5.872-1.556.909L221,341.409Z" transform="translate(-221 -340.5)"/></g><g transform="translate(3.996 11.087)"><path class="d" d="M142.143,328.7l1.509.872-3.843,2.24-1.509-.872Z" transform="translate(-138.3 -328.7)"/></g><g transform="translate(18.113 10.497)"><path class="d" d="M294.515,322.4l2.222,1.284-5.615,3.244-2.222-1.284Z" transform="translate(-288.9 -322.4)"/></g><g transform="translate(5.843 12.728)"><path class="d" d="M160.859,346.2l1.509.872-2.859,1.659L158,347.859Z" transform="translate(-158 -346.2)"/></g><g transform="translate(13.042 13.084)"><path class="d" d="M237.247,350l1.509.872-2.447,1.416-1.509-.872Z" transform="translate(-234.8 -350)"/></g><g transform="translate(7.689 13.225)"><path class="d" d="M181.543,351.5l1.509.872-3.843,2.231-1.509-.872Z" transform="translate(-177.7 -351.5)"/></g><g transform="translate(9.545 14.612)"><path class="d" d="M200.809,366.3l1.5.872-3.3,1.922-1.509-.872Z" transform="translate(-197.5 -366.3)"/></g></g><g transform="translate(0)"><path class="c" d="M103.864,44.512a.071.071,0,0,0-.037-.019c-.094-.056-.187-.1-.281-.159s-.187-.1-.281-.159a.7.7,0,0,0-.694.066l-19.7,11.371a2.164,2.164,0,0,0-.975,1.678L81.938,70.4a.669.669,0,0,0,.281.619c.234.131.459.272.694.4a.677.677,0,0,1-.281-.628l-.038-13.105a2.124,2.124,0,0,1,.975-1.678l19.714-11.38a.679.679,0,0,1,.694-.066Z" transform="translate(-81.9 -44.109)"/></g><g transform="translate(0.694 0.392)"><path class="b" d="M109.989,48.421c.534-.309.975-.056.975.553L111,62.089a2.149,2.149,0,0,1-.975,1.678l-19.7,11.39c-.534.309-.975.056-.975-.562L89.3,61.48a2.124,2.124,0,0,1,.975-1.678ZM110.214,62l-.037-12.008c0-.366-.262-.516-.591-.337L90.669,60.58a1.3,1.3,0,0,0-.581,1.012L90.125,73.6c0,.366.262.516.591.328L109.642,63a1.312,1.312,0,0,0,.572-1Z" transform="translate(-89.3 -48.289)"/></g></g><g transform="translate(36.974 48.067)"><g transform="translate(0 9.684)"><path class="e" d="M111.175,189.722c.375-.216.5-.019.5.291v1.209a.959.959,0,0,1-.5.862l-.459.262c-.309.178-.516.112-.516-.281v-1.191a1,1,0,0,1,.516-.891Zm.1,1.65v-1.059c0-.15-.056-.2-.2-.122l-.291.169a.381.381,0,0,0-.2.347v1.059c0,.2.122.159.216.112l.272-.159a.346.346,0,0,0,.2-.347Z" transform="translate(-110.2 -189.631)"/></g><g transform="translate(7.171 5.54)"><path class="e" d="M187.675,145.522c.375-.216.5-.019.5.291v1.209a.959.959,0,0,1-.5.862l-.459.262c-.309.178-.516.112-.516-.281v-1.191a1.021,1.021,0,0,1,.516-.891Zm.112,1.65v-1.059c0-.15-.056-.2-.187-.122l-.291.169a.381.381,0,0,0-.2.347v1.059c0,.2.112.169.216.112l.272-.159a.376.376,0,0,0,.187-.347Z" transform="translate(-186.7 -145.431)"/></g><g transform="translate(2.4 12.055)"><path class="e" d="M136.775,215.022c.375-.216.5-.019.5.291v1.209a.959.959,0,0,1-.5.862l-.459.262c-.309.178-.516.1-.516-.281v-1.191a1,1,0,0,1,.516-.891Zm.112,1.65v-1.059c0-.15-.056-.2-.2-.122l-.291.169a.381.381,0,0,0-.2.347v1.059c0,.2.122.159.216.112l.272-.159a.376.376,0,0,0,.2-.347Z" transform="translate(-135.8 -214.931)"/></g><g transform="translate(2.409 15.805)"><path class="e" d="M136.875,255.022c.375-.216.5-.019.5.291v1.2a.959.959,0,0,1-.5.862l-.459.262c-.309.178-.516.1-.516-.281v-1.191a.987.987,0,0,1,.516-.881Zm.113,1.65V255.6c0-.15-.056-.2-.187-.112l-.291.169a.381.381,0,0,0-.2.347v1.059c0,.2.122.159.216.112l.272-.159a.376.376,0,0,0,.188-.347Z" transform="translate(-135.9 -254.931)"/></g><g transform="translate(0.019 17.192)"><path class="e" d="M111.375,269.822c.375-.216.5-.019.5.291v1.2a.959.959,0,0,1-.5.862l-.459.262c-.309.178-.516.1-.516-.281v-1.191a.987.987,0,0,1,.516-.881Zm.112,1.641v-1.069c0-.15-.056-.2-.2-.113l-.291.169a.381.381,0,0,0-.2.347v1.059c0,.2.122.159.216.112l.272-.159a.367.367,0,0,0,.2-.347Z" transform="translate(-110.4 -269.731)"/></g><g transform="translate(9.562 4.162)"><path class="e" d="M213.175,130.822c.375-.216.5-.019.5.291v1.209a.959.959,0,0,1-.5.862l-.459.262c-.319.187-.516.113-.516-.272v-1.191a1.021,1.021,0,0,1,.516-.891Zm.112,1.65v-1.059c0-.15-.056-.2-.187-.122l-.291.169a.381.381,0,0,0-.2.347v1.059c0,.2.113.169.216.112l.272-.159a.387.387,0,0,0,.187-.347Z" transform="translate(-212.2 -130.731)"/></g><g transform="translate(11.952 2.784)"><path class="e" d="M238.675,116.122c.375-.216.5-.019.5.291v1.209a.959.959,0,0,1-.5.862l-.459.262c-.319.187-.516.112-.516-.272v-1.191a1.021,1.021,0,0,1,.516-.891Zm.112,1.64V116.7c0-.15-.056-.2-.2-.122l-.291.169a.381.381,0,0,0-.2.347v1.059c0,.2.112.169.216.112l.272-.159a.366.366,0,0,0,.2-.347Z" transform="translate(-237.7 -116.031)"/></g><g transform="translate(2.737 8.303)"><path class="e" d="M140.178,174.9l.009,2.353-.394.225v-1.9l-.394.347v-.3l.394-.5Z" transform="translate(-139.4 -174.9)"/></g><g transform="translate(5.128 6.925)"><path class="e" d="M165.678,160.2l.009,2.353-.394.225v-1.9l-.394.337v-.291l.394-.5Z" transform="translate(-164.9 -160.2)"/></g><g transform="translate(14.689 1.403)"><path class="e" d="M267.687,101.3v2.353l-.384.225-.009-1.9-.394.337v-.291l.394-.5Z" transform="translate(-266.9 -101.3)"/></g><g transform="translate(0.356 13.44)"><path class="e" d="M114.778,229.7l.009,2.353-.394.225v-1.9l-.394.337v-.291l.394-.5Z" transform="translate(-114 -229.7)"/></g><g transform="translate(5.146 14.433)"><path class="e" d="M165.887,240.3v2.353l-.394.225v-1.912l-.394.347v-.3l.394-.487Z" transform="translate(-165.1 -240.3)"/></g><g transform="translate(7.181 9.29)"><path class="e" d="M187.775,185.522c.375-.216.5-.019.5.291v1.209a.959.959,0,0,1-.5.862l-.459.262c-.309.178-.516.1-.516-.281v-1.191a1.021,1.021,0,0,1,.516-.891Zm.112,1.65v-1.059c0-.15-.056-.2-.187-.122l-.291.169a.381.381,0,0,0-.2.347v1.059c0,.2.112.169.216.112l.272-.159a.376.376,0,0,0,.187-.347Z" transform="translate(-186.8 -185.431)"/></g><g transform="translate(9.581 11.671)"><path class="e" d="M213.375,210.922c.375-.216.5-.019.5.291v1.2a.959.959,0,0,1-.5.862l-.459.262c-.319.187-.516.1-.516-.281v-1.191a1,1,0,0,1,.516-.881Zm.112,1.64v-1.069c0-.15-.056-.2-.2-.112l-.291.169a.377.377,0,0,0-.2.337v1.059c0,.2.112.169.216.112l.272-.159a.343.343,0,0,0,.2-.337Z" transform="translate(-212.4 -210.831)"/></g><g transform="translate(11.98 10.284)"><path class="e" d="M238.975,196.122c.375-.216.5-.019.5.291v1.2a.959.959,0,0,1-.5.862l-.459.262c-.319.187-.516.1-.516-.281v-1.191a1,1,0,0,1,.516-.881Zm.1,1.65V196.7c0-.15-.056-.2-.2-.112l-.291.169a.377.377,0,0,0-.2.337v1.059c0,.2.112.169.216.112l.272-.159a.33.33,0,0,0,.2-.337Z" transform="translate(-238 -196.031)"/></g><g transform="translate(5.137 10.674)"><path class="e" d="M165.778,200.2l.009,2.353-.394.234v-1.912l-.394.347v-.3l.394-.5Z" transform="translate(-165 -200.2)"/></g><g transform="translate(9.918 7.918)"><path class="e" d="M216.787,170.8v2.353l-.384.225-.009-1.9-.394.337v-.3l.394-.487Z" transform="translate(-216 -170.8)"/></g><g transform="translate(7.537 13.046)"><path class="e" d="M191.387,225.5v2.353l-.384.225-.009-1.9-.394.337v-.291l.394-.5Z" transform="translate(-190.6 -225.5)"/></g><g transform="translate(16.771)"><path class="e" d="M290.075,86.422c.375-.216.5-.019.5.291v1.209a.959.959,0,0,1-.5.862l-.459.262c-.319.187-.516.112-.516-.272V87.584a1.021,1.021,0,0,1,.516-.891Zm.1,1.65V87.012c0-.15-.056-.2-.2-.122l-.291.169a.381.381,0,0,0-.2.347v1.059c0,.2.112.169.216.112l.272-.159a.352.352,0,0,0,.2-.347Z" transform="translate(-289.1 -86.331)"/></g><g transform="translate(16.78 3.75)"><path class="e" d="M290.175,126.422c.375-.216.5-.019.5.291v1.209a.959.959,0,0,1-.5.862l-.459.262c-.319.188-.516.1-.516-.272v-1.191a1.021,1.021,0,0,1,.516-.891Zm.1,1.65v-1.059c0-.15-.056-.2-.2-.122l-.291.169a.381.381,0,0,0-.2.347v1.059c0,.2.113.169.216.113l.272-.159a.352.352,0,0,0,.2-.347Z" transform="translate(-289.2 -126.331)"/></g><g transform="translate(17.136 7.506)"><path class="e" d="M293.778,166.4l.009,2.353-.394.225v-1.9l-.394.337v-.291l.394-.5Z" transform="translate(-293 -166.4)"/></g><g transform="translate(14.352 5.156)"><path class="e" d="M264.275,141.422c.375-.216.5-.019.5.291v1.209a.959.959,0,0,1-.5.862l-.459.262c-.309.178-.516.1-.516-.272v-1.191a1.021,1.021,0,0,1,.516-.891Zm.112,1.65v-1.059c0-.15-.056-.2-.187-.122l-.291.169a.381.381,0,0,0-.2.347v1.059c0,.2.112.169.216.113l.272-.159a.369.369,0,0,0,.188-.347Z" transform="translate(-263.3 -141.331)"/></g><g transform="translate(14.708 8.912)"><path class="e" d="M267.887,181.4v2.353l-.384.225-.009-1.912-.394.337v-.291l.4-.5Z" transform="translate(-267.1 -181.4)"/></g><g transform="translate(12.308 6.54)"><path class="e" d="M242.287,156.1v2.353l-.384.225-.009-1.912-.394.347v-.3l.394-.5Z" transform="translate(-241.5 -156.1)"/></g></g><g transform="translate(29.4 57.165)"><g transform="translate(3.693 9.094)"><path class="d" d="M69.559,282.369l-.759-.441.881-1.528.759.431Z" transform="translate(-68.8 -280.4)"/></g><g transform="translate(4.453 9.526)"><path class="e" d="M77.781,285a1.677,1.677,0,0,0,.431.337,1.725,1.725,0,0,0,.516.2l-.881,1.537-.947-.534Z" transform="translate(-76.9 -285)"/></g><g transform="translate(0.759 10.81)"><path class="f" d="M40.734,298.7l.459.253.937.534.45.262-3.243,5.615-1.837-1.05Z" transform="translate(-37.5 -298.7)"/></g><g transform="translate(0 10.369)"><path class="g" d="M30.159,300.056l-.759-.441L32.643,294l.75.441Z" transform="translate(-29.4 -294)"/></g><g transform="translate(3.893)"><path class="g" d="M72.785,213.743l-.759-.441a1.767,1.767,0,0,1-.412-.328c-1.031-1.1-.891-3.515.412-5.775a9.641,9.641,0,0,1,.825-1.2l.759.441a8.725,8.725,0,0,0-.825,1.2c-1.3,2.259-1.444,4.678-.412,5.775a2.351,2.351,0,0,0,.412.328Z" transform="translate(-70.931 -203.88)"/><path class="g" d="M92.159,186.5l-.759-.441a6.832,6.832,0,0,1,1.828-1.6A4.116,4.116,0,0,1,94.372,184l.759.441a3.751,3.751,0,0,0-1.144.459,6.809,6.809,0,0,0-1.828,1.6Z" transform="translate(-89.481 -183.942)"/><path class="g" d="M123.959,183.883l-.759-.441a2.141,2.141,0,0,1,1.519.187l.759.441a2.093,2.093,0,0,0-1.519-.187Z" transform="translate(-118.3 -183.385)"/></g><g transform="translate(4.662 0.437)"><path class="f" d="M85.541,188.3c1.472.844,1.481,3.581.019,6.112a7.687,7.687,0,0,1-2.653,2.8,3.093,3.093,0,0,1-2.147.469,1.725,1.725,0,0,1-.516-.2,1.909,1.909,0,0,1-.431-.337c-1.031-1.1-.891-3.515.412-5.775a7.687,7.687,0,0,1,2.653-2.8A2.656,2.656,0,0,1,85.541,188.3Zm-.619,5.746c1.116-1.931,1.106-4.022-.009-4.659a2.059,2.059,0,0,0-2.034.206,5.885,5.885,0,0,0-2.025,2.137c-1.116,1.931-1.106,4.022.009,4.659a2.059,2.059,0,0,0,2.034-.206,5.81,5.81,0,0,0,2.025-2.137Z" transform="translate(-79.131 -188.049)"/></g><g transform="translate(5.548 1.587)"><path class="h" d="M91.448,200.7a2.058,2.058,0,0,1,2.034-.206c1.125.637,1.125,2.728.009,4.659a5.885,5.885,0,0,1-2.025,2.137,2.058,2.058,0,0,1-2.034.206c-1.125-.637-1.125-2.728-.009-4.659A5.884,5.884,0,0,1,91.448,200.7Z" transform="translate(-88.587 -200.309)"/></g><g transform="translate(7.331 2.598)"><path class="e" d="M109.231,211.1l.019,4.893-.816.469-.019-3.965-.816.712v-.619l.825-1.031Z" transform="translate(-107.6 -211.1)"/></g></g></g></svg>