<svg xmlns="http://www.w3.org/2000/svg" viewBox="0 0 40 45.697"><defs><style>.a{fill:#025a82;}.b{fill:#024462;}.c{fill:#9cb5cc;}.d{fill:#d7e7f7;}.e{fill:#f8f9fc;}.f{fill:#fa7564;}</style></defs><g transform="translate(-56 -42)"><g transform="translate(56 42)"><g transform="translate(0 24.952)"><g transform="translate(0 6.478)"><path class="a" d="M77.3,329.966l-.01,4.028c0,1.659-1.034,3.308-3.091,4.574a15.8,15.8,0,0,1-15.053,0C57.044,337.28,56,335.6,56,333.928l.01-4.028c0,1.681,1.044,3.351,3.143,4.629a15.8,15.8,0,0,0,15.053,0c2.057-1.255,3.091-2.915,3.091-4.563Z" transform="translate(-56 -329.9)"/></g><g transform="translate(0.015)"><path class="b" d="M74.289,272.466c4.166,2.544,4.187,6.67.052,9.2a15.8,15.8,0,0,1-15.053,0c-4.166-2.544-4.187-6.659-.041-9.2A15.811,15.811,0,0,1,74.289,272.466Z" transform="translate(-56.15 -270.562)"/></g></g><g transform="translate(0 19.959)"><g transform="translate(0 6.482)"><path class="a" d="M77.3,284.266l-.01,4.028c0,1.659-1.034,3.308-3.091,4.574a15.8,15.8,0,0,1-15.053,0C57.044,291.58,56,289.9,56,288.228l.01-4.028c0,1.681,1.044,3.351,3.143,4.629a15.8,15.8,0,0,0,15.053,0c2.057-1.255,3.091-2.915,3.091-4.563Z" transform="translate(-56 -284.2)"/></g><g transform="translate(0.015)"><path class="b" d="M74.289,226.733c4.166,2.544,4.187,6.67.052,9.2a15.8,15.8,0,0,1-15.053,0c-4.166-2.544-4.187-6.659-.041-9.2A15.781,15.781,0,0,1,74.289,226.733Z" transform="translate(-56.15 -224.825)"/></g></g><g transform="translate(0 14.97)"><g transform="translate(0 6.471)"><path class="a" d="M77.3,238.466l-.01,4.028c0,1.659-1.034,3.308-3.091,4.574a15.8,15.8,0,0,1-15.053,0c-2.1-1.277-3.143-2.958-3.143-4.64l.01-4.028c0,1.681,1.044,3.351,3.143,4.629a15.8,15.8,0,0,0,15.053,0c2.057-1.245,3.091-2.9,3.091-4.563Z" transform="translate(-56 -238.4)"/></g><g transform="translate(0.015)"><path class="b" d="M74.289,181.033c4.166,2.544,4.187,6.67.052,9.2a15.8,15.8,0,0,1-15.053,0c-4.166-2.544-4.187-6.659-.041-9.2A15.781,15.781,0,0,1,74.289,181.033Z" transform="translate(-56.15 -179.125)"/></g></g><g transform="translate(0 9.981)"><g transform="translate(0 6.471)"><path class="a" d="M77.3,192.766l-.01,4.028c0,1.659-1.034,3.308-3.091,4.574a15.8,15.8,0,0,1-15.053,0c-2.1-1.277-3.143-2.958-3.143-4.64l.01-4.028c0,1.681,1.044,3.351,3.143,4.629a15.8,15.8,0,0,0,15.053,0c2.057-1.255,3.091-2.9,3.091-4.563Z" transform="translate(-56 -192.7)"/></g><g transform="translate(0.015)"><path class="b" d="M74.289,135.333c4.166,2.544,4.187,6.67.052,9.2a15.8,15.8,0,0,1-15.053,0c-4.166-2.544-4.187-6.659-.041-9.2A15.781,15.781,0,0,1,74.289,135.333Z" transform="translate(-56.15 -133.425)"/></g></g><g transform="translate(0 4.992)"><g transform="translate(0 6.471)"><path class="a" d="M77.3,147.066l-.01,4.028c0,1.659-1.034,3.308-3.091,4.574a15.8,15.8,0,0,1-15.053,0c-2.1-1.277-3.143-2.958-3.143-4.64L56.01,147c0,1.681,1.044,3.351,3.143,4.629a15.8,15.8,0,0,0,15.053,0c2.057-1.255,3.091-2.9,3.091-4.563Z" transform="translate(-56 -147)"/></g><g transform="translate(0.015)"><path class="b" d="M74.289,89.633c4.166,2.544,4.187,6.67.052,9.2a15.8,15.8,0,0,1-15.053,0c-4.166-2.544-4.187-6.659-.041-9.2A15.781,15.781,0,0,1,74.289,89.633Z" transform="translate(-56.15 -87.725)"/></g></g><g transform="translate(0 6.474)"><path class="a" d="M77.3,101.366l-.01,4.028c0,1.659-1.034,3.308-3.091,4.574a15.8,15.8,0,0,1-15.053,0c-2.1-1.288-3.143-2.958-3.143-4.64l.01-4.028c0,1.681,1.044,3.351,3.143,4.629a15.8,15.8,0,0,0,15.053,0c2.057-1.255,3.091-2.9,3.091-4.563Z" transform="translate(-56 -101.3)"/></g><g transform="translate(0.015)"><path class="b" d="M74.289,43.9c4.166,2.544,4.187,6.67.052,9.2a15.8,15.8,0,0,1-15.053,0c-4.166-2.544-4.187-6.659-.041-9.2A15.84,15.84,0,0,1,74.289,43.9Z" transform="translate(-56.15 -42)"/></g></g><g transform="translate(75.612 49.249)"><g transform="translate(0)"><g transform="translate(0 9.639)"><path class="c" d="M246.61,222.682l-.837-.513L245.7,196.7l.848.513Z" transform="translate(-245.7 -196.7)"/></g><path class="d" d="M246.548,118.553l-.848-.513,15.818-9.639.848.513Z" transform="translate(-245.7 -108.4)"/><g transform="translate(0.848 0.513)"><path class="e" d="M269.718,113.1l.062,25.469-15.818,9.639-.062-25.469Z" transform="translate(-253.9 -113.1)"/></g></g><g transform="translate(1.799 1.255)"><g transform="translate(0 9.65)"><path class="c" d="M264.01,234.282l-.848-.513L263.1,208.3l.837.513Z" transform="translate(-263.1 -208.3)"/></g><path class="d" d="M263.937,130.063l-.837-.513,15.818-9.65.837.524Z" transform="translate(-263.1 -119.9)"/><g transform="translate(0.837 0.524)"><path class="e" d="M287.018,124.7l.072,25.469-15.818,9.639-.072-25.469Z" transform="translate(-271.2 -124.7)"/></g></g><g transform="translate(3.66 2.817)"><g transform="translate(0 9.65)"><path class="c" d="M282.01,248.582l-.848-.513L281.1,222.6l.837.513Z" transform="translate(-281.1 -222.6)"/></g><path class="d" d="M281.937,144.363l-.837-.513,15.818-9.65.837.524Z" transform="translate(-281.1 -134.2)"/><g transform="translate(0.837 0.524)"><path class="e" d="M305.018,139l.072,25.469-15.818,9.639-.072-25.469Z" transform="translate(-289.2 -139)"/></g></g><g transform="translate(5.51 10.043)"><g transform="translate(0.031 7.052)"><path class="c" d="M313.112,265v1.528L299.3,274.956v-1.528Z" transform="translate(-299.3 -265)"/></g><g transform="translate(0.01 0.535)"><path class="c" d="M312.912,205.3v1.528l-13.8,8.417-.01-1.528Z" transform="translate(-299.1 -205.3)"/></g><path class="f" d="M308.336,200.4l.01,1.528-9.336,5.688-.01-1.528Z" transform="translate(-299 -200.4)"/><g transform="translate(0.021 3.799)"><path class="c" d="M313.012,235.2v1.528L299.2,245.145v-1.528Z" transform="translate(-299.2 -235.2)"/></g><g transform="translate(0.052 13.58)"><path class="c" d="M313.3,324.8l.01,1.528L299.5,334.756v-1.539Z" transform="translate(-299.5 -324.8)"/></g><g transform="translate(0.041 10.316)"><path class="c" d="M313.212,294.9v1.528L299.4,304.856v-1.528Z" transform="translate(-299.4 -294.9)"/></g></g></g></g></svg>