<svg xmlns="http://www.w3.org/2000/svg" viewBox="0 0 40 35.785"><defs><style>.a{fill:#d7e7f7;}.b{fill:#f8f9fc;}.c{fill:#024462;}.d{fill:#025a82;}.e{fill:#f0a72e;}.f{fill:#ffca00;}.g{fill:#d43e3e;}.h{fill:#fa7564;}</style></defs><g transform="translate(-30.9 -53.013)"><g transform="translate(30.9 53.013)"><path class="a" d="M330.544,75.714a4.258,4.258,0,0,0-3.063-.386,8.075,8.075,0,0,0-2.291.911A12.123,12.123,0,0,0,323,77.876l3.385,1.969a12.121,12.121,0,0,1,2.19-1.638,7.714,7.714,0,0,1,2.291-.911,4.258,4.258,0,0,1,3.063.386Z" transform="translate(-296.128 -73.167)"/><path class="a" d="M55.343,53.6A4.895,4.895,0,0,0,51.8,53.15a9.1,9.1,0,0,0-2.649,1.058A15.823,15.823,0,0,0,44.938,57.9a19.833,19.833,0,0,0-4.351,9.752,7.905,7.905,0,0,0-2.19.892,13.71,13.71,0,0,0-3.643,3.183A16.329,16.329,0,0,0,30.9,81.512c.009,2.364.846,4.029,2.19,4.811l3.385,1.969c-1.352-.782-2.18-2.447-2.19-4.811a16.329,16.329,0,0,1,3.855-9.788,13.57,13.57,0,0,1,3.643-3.183,7.905,7.905,0,0,1,2.19-.892,19.833,19.833,0,0,1,4.351-9.752,15.965,15.965,0,0,1,4.213-3.689,9,9,0,0,1,2.649-1.058,4.9,4.9,0,0,1,3.542.451Z" transform="translate(-30.9 -53.013)"/><g transform="translate(3.385 1.963)"><path class="b" d="M85.961,75.539c4.351-2.511,7.967-.92,8.62,3.523a12.123,12.123,0,0,1,2.19-1.638c4.149-2.392,7.525-.478,7.544,4.3a16.516,16.516,0,0,1-7.488,12.971L75.243,107.139c-4.149,2.392-7.525.478-7.544-4.3a16.5,16.5,0,0,1,7.488-12.971,7.9,7.9,0,0,1,2.19-.892C78.013,83.818,81.6,78.059,85.961,75.539Z" transform="translate(-67.7 -74.347)"/></g></g><g transform="translate(44.059 60.555)"><g transform="translate(0 11.352)"><path class="c" d="M228.515,294.739l-.469-.212L228,294.5l1.27.736.046.028.469.212a.034.034,0,0,1,.028.009l-1.27-.736A.04.04,0,0,0,228.515,294.739Z" transform="translate(-223.027 -291.179)"/><path class="c" d="M205.406,328a.148.148,0,0,0-.037-.064l-1.27-.736a.066.066,0,0,1,.037.064l.267.515a.085.085,0,0,0,.037.055l1.27.736a.085.085,0,0,1-.037-.055Z" transform="translate(-201.326 -320.871)"/><path class="c" d="M179.6,259.44a.116.116,0,0,0-.055-.009.07.07,0,0,0-.037.018.127.127,0,0,1-.037.028l-.478.313.267-.5a.372.372,0,0,1,.046-.083.173.173,0,0,1,.064-.055c.009-.009.028-.009.037-.018h.028l.552.064a.034.034,0,0,1,.028.009l-1.27-.736c-.009,0-.018-.009-.028-.009l-.552-.064h-.028a.07.07,0,0,0-.037.018c-.028.009-.046.037-.064.055a.178.178,0,0,0-.046.083l-.414.791-.046.074-.837-.488a.117.117,0,0,0-.055-.009.07.07,0,0,0-.037.018.127.127,0,0,1-.037.028l-.616.534a.127.127,0,0,0-.028.037.244.244,0,0,0-.064.212l.037.7v.074a.8.8,0,0,0-.074.092,4.339,4.339,0,0,0-.3.414.4.4,0,0,1-.064.055c-.018.009-.028.018-.046.018h-.028l-.589.074h-.028c-.018,0-.028.009-.046.018s-.046.037-.064.055a.242.242,0,0,0-.046.083l-.331.819c-.037.083-.028.147.018.175l.534.313a4.661,4.661,0,0,0-.083.5.34.34,0,0,1-.064.129c-.009.018-.028.028-.046.046l-.58.635-.037.037a.265.265,0,0,0-.064.2l.147.626a.092.092,0,0,0,.037.046l.911.534-.074.267a.141.141,0,0,0,.018.175l1.27.736c-.046-.028-.055-.1-.018-.175l.221-.81a.234.234,0,0,0,.009-.175.983.983,0,0,1-.248-.294l-.856-.5.524-.57c.018-.009.028-.028.046-.046a.34.34,0,0,0,.064-.129,4.315,4.315,0,0,1,.092-.57l-.58-.34a.2.2,0,0,1,.009-.074l.331-.819a.371.371,0,0,1,.046-.083.172.172,0,0,1,.064-.055c.018-.009.028-.018.046-.018h.028l.589-.074h.028c.018,0,.028-.009.046-.018a.173.173,0,0,0,.064-.055,4.8,4.8,0,0,1,.3-.414.8.8,0,0,0,.074-.092v-.074l-.037-.7a.244.244,0,0,1,.064-.212c.009-.009.018-.028.028-.037l.4-.331.69.4a.117.117,0,0,0,.055.009,1.719,1.719,0,0,1,.432-.147h.009l.046-.083.046-.092,1.159.672.064-.037.635-.4a.127.127,0,0,1,.037-.028c.009-.009.028-.009.037-.018a.117.117,0,0,1,.055.009Z" transform="translate(-173.947 -258.4)"/><path class="c" d="M201.176,287.736l-1.27-.736a.527.527,0,0,1,.239.35,1.916,1.916,0,0,1-.672,1.656,1.086,1.086,0,0,1-.221.156.869.869,0,0,1-.276.11.578.578,0,0,1-.377-.046l1.27.736a.513.513,0,0,0,.377.046.869.869,0,0,0,.276-.11,1.626,1.626,0,0,0,.221-.156,2.7,2.7,0,0,0,.23-.23,1.808,1.808,0,0,0,.442-1.426A.5.5,0,0,0,201.176,287.736Z" transform="translate(-196.332 -284.369)"/><g transform="translate(1.252 0.736)"><path class="d" d="M193.42,268.12a.261.261,0,0,1-.1.239l-.58.626a.436.436,0,0,0-.11.175,4.318,4.318,0,0,1-.092.57l.046.028.469.212c.064,0,.083.092.046.184l-.331.819a.348.348,0,0,1-.11.138.111.111,0,0,1-.074.018l-.589.083a.269.269,0,0,0-.083.018.172.172,0,0,0-.064.055c-.11.175-.248.34-.377.506v.074l.037.708a.261.261,0,0,1-.1.239l-.616.534c-.009.009-.018.018-.028.018-.064.037-.12.018-.129-.046l-.267-.515a.082.082,0,0,0-.092-.074,2.4,2.4,0,0,1-.451.156l-.046.074-.423.782a.284.284,0,0,1-.11.138.217.217,0,0,1-.074.018l-.543-.064c-.064-.009-.083-.092-.046-.184l.221-.81a.234.234,0,0,0,.009-.175.982.982,0,0,1-.248-.294l-.064.037-.635.4-.028.028a.079.079,0,0,1-.129-.037l-.147-.626a.276.276,0,0,1,.092-.239l.58-.635a.476.476,0,0,0,.11-.166,4.317,4.317,0,0,1,.092-.57l-.046-.018-.478-.212c-.064-.009-.083-.092-.046-.184l.331-.819a.3.3,0,0,1,.12-.138.17.17,0,0,1,.064-.018l.589-.074a.268.268,0,0,0,.083-.018.172.172,0,0,0,.064-.055,5.239,5.239,0,0,1,.386-.506v-.074l-.037-.7a.277.277,0,0,1,.092-.248l.616-.534a.127.127,0,0,1,.037-.028.078.078,0,0,1,.129.046l.258.515c.018.055.046.074.092.074a1.913,1.913,0,0,1,.442-.147l.046-.083.414-.791a.348.348,0,0,1,.11-.138.111.111,0,0,1,.074-.018l.552.064c.064.009.083.092.046.184l-.221.81a.234.234,0,0,0-.009.175.983.983,0,0,1,.248.294l.064-.037.635-.4a.127.127,0,0,1,.037-.028c.064-.037.11-.018.129.046Zm-2.7,2.925a1.882,1.882,0,0,0,.662-1.656c-.1-.423-.478-.524-.892-.285a.839.839,0,0,0-.212.156,1.923,1.923,0,0,0-.672,1.665c.1.414.478.524.892.285.074-.055.147-.1.221-.166Z" transform="translate(-187.556 -266.4)"/></g></g><g transform="translate(1.11 0)"><path class="e" d="M263.145,186.431l-.672-.294-.074-.037,1.27.736.074.037.672.294c.018,0,.028.009.037.009l-1.27-.736C263.173,186.44,263.154,186.431,263.145,186.431Z" transform="translate(-255.373 -181.399)"/><path class="e" d="M230.025,233.219a.134.134,0,0,0-.055-.083l-1.27-.736a.134.134,0,0,1,.055.083l.368.727a.114.114,0,0,0,.046.074l1.27.736c-.028-.009-.037-.037-.046-.074Z" transform="translate(-224.773 -223.44)"/><path class="e" d="M261.468,150.872a.115.115,0,0,0-.083-.009.08.08,0,0,0-.055.028c-.018.009-.028.018-.046.028l-.892.58-.092.055,1.27.736.092-.055.892-.58c.018-.009.028-.018.046-.028l.055-.028a.13.13,0,0,1,.083.009Z" transform="translate(-253.466 -149.4)"/><path class="e" d="M224.209,176.136l-1.27-.736a.784.784,0,0,1,.34.5,2.56,2.56,0,0,1-.626,2.015,3.664,3.664,0,0,1-.322.331,1.742,1.742,0,0,1-.7.377.739.739,0,0,1-.534-.064l1.27.736a.739.739,0,0,0,.534.064,1.14,1.14,0,0,0,.386-.156,1.971,1.971,0,0,0,.313-.221,2.738,2.738,0,0,0,.322-.331,2.58,2.58,0,0,0,.626-2.015A.785.785,0,0,0,224.209,176.136Z" transform="translate(-217.872 -171.683)"/><path class="e" d="M188.725,144.181l-1.214-.708.736-.81.055-.055a.519.519,0,0,0,.1-.184,5.162,5.162,0,0,1,.129-.8l-.819-.478a.233.233,0,0,1,.018-.11l.469-1.159a.521.521,0,0,1,.074-.12.261.261,0,0,1,.092-.083.131.131,0,0,1,.055-.018h.046l.837-.12h.046c.018-.009.046-.018.064-.028a.3.3,0,0,0,.083-.074,5.958,5.958,0,0,1,.46-.616c.028-.028.055-.064.083-.092v-.1l-.055-.994a.386.386,0,0,1,.092-.294c.018-.018.028-.037.046-.046l.552-.478.975.57a.173.173,0,0,0,.074.018,2.953,2.953,0,0,1,.626-.212h0l.064-.11.589-1.113a.522.522,0,0,1,.074-.12.261.261,0,0,1,.092-.083l.055-.028h.037l.773.092c.009,0,.028.009.037.009l-1.27-.736c-.009-.009-.018-.009-.037-.009l-.773-.092h-.037a.08.08,0,0,0-.055.028.374.374,0,0,0-.092.083.522.522,0,0,0-.074.12l-.589,1.113-.055.11-1.187-.69a.1.1,0,0,0-.074-.009.131.131,0,0,0-.055.018c-.018.009-.028.018-.046.028l-.874.754-.046.046a.386.386,0,0,0-.092.294l.055.994v.1c-.028.028-.055.064-.083.092a7.668,7.668,0,0,0-.46.616.6.6,0,0,1-.083.074c-.018.009-.046.018-.064.028h-.046l-.837.12h-.046a.131.131,0,0,0-.055.018.373.373,0,0,0-.092.083.521.521,0,0,0-.074.12l-.469,1.159c-.046.12-.028.212.028.248l.754.442a4.99,4.99,0,0,0-.11.7.518.518,0,0,1-.1.184l-.055.055-.819.892-.046.046a.353.353,0,0,0-.092.294l.221.883a.114.114,0,0,0,.046.074l1.27.736c-.028-.009-.037-.037-.046-.074l-.221-.883a.376.376,0,0,1,.092-.294c.018-.018.028-.037.046-.046l.055-.064a2.059,2.059,0,0,0,.313.368.281.281,0,0,1-.018.239l-.313,1.141c-.046.11-.028.221.028.248l1.27.736c-.064-.037-.074-.138-.028-.248l.313-1.141a.32.32,0,0,0,.018-.239A2.21,2.21,0,0,1,188.725,144.181Z" transform="translate(-186.012 -135)"/><g transform="translate(1.262 0.745)"><path class="f" d="M208.007,145.52a.378.378,0,0,1-.138.34l-.819.892a.569.569,0,0,0-.156.239,5.159,5.159,0,0,1-.129.8l.074.037.672.294c.092.009.12.129.064.258l-.469,1.159a.433.433,0,0,1-.166.193.21.21,0,0,1-.1.028l-.837.12a.318.318,0,0,0-.12.028.3.3,0,0,0-.083.074,6.676,6.676,0,0,1-.543.718v.1l.055.994a.379.379,0,0,1-.138.34l-.874.754c-.018.018-.037.028-.046.037-.083.046-.156.028-.184-.064l-.368-.727a.129.129,0,0,0-.138-.1,2.954,2.954,0,0,1-.626.212l-.064.11-.589,1.113a.413.413,0,0,1-.166.2.206.206,0,0,1-.092.028l-.773-.092c-.092-.018-.12-.129-.064-.267l.313-1.141a.32.32,0,0,0,.018-.239,1.737,1.737,0,0,1-.359-.414l-.092.055-.892.58a.161.161,0,0,1-.046.037c-.083.046-.156.028-.175-.064l-.221-.883a.379.379,0,0,1,.138-.34l.819-.892a.545.545,0,0,0,.156-.248,5.162,5.162,0,0,1,.129-.8l-.064-.037-.672-.294c-.092-.009-.12-.129-.064-.258l.469-1.159a.417.417,0,0,1,.156-.193.135.135,0,0,1,.1-.018l.837-.12a.206.206,0,0,0,.12-.028.3.3,0,0,0,.083-.074,8.051,8.051,0,0,1,.534-.718v-.1l-.055-.994a.379.379,0,0,1,.138-.34l.874-.754c.018-.009.028-.018.046-.028.083-.046.166-.028.184.064l.368.727a.129.129,0,0,0,.138.1,3.024,3.024,0,0,1,.635-.212l.064-.11.589-1.113a.4.4,0,0,1,.156-.2.21.21,0,0,1,.1-.028l.773.092c.092.009.12.129.064.258l-.322,1.141a.32.32,0,0,0-.018.239,1.4,1.4,0,0,1,.35.414l.092-.055.892-.58c.018-.009.028-.018.046-.028.083-.046.166-.028.184.055Zm-3.818,4.14a2.671,2.671,0,0,0,.948-2.355c-.147-.6-.681-.745-1.26-.414a2.17,2.17,0,0,0-.313.221,2.688,2.688,0,0,0-.948,2.346c.147.6.681.745,1.26.414a1.7,1.7,0,0,0,.313-.212Z" transform="translate(-199.73 -143.1)"/></g></g><g transform="translate(7.343 3.011)"><path class="g" d="M365.8,249.7l1.27.736c.009,0,.018.009.028.009l-1.27-.736A.034.034,0,0,1,365.8,249.7Z" transform="translate(-355.493 -242.159)"/><path class="g" d="M358.364,195.05a.145.145,0,0,0-.11-.009.283.283,0,0,0-.11.046l-1.251.653a.384.384,0,0,1-.092.037l1.27.736a.384.384,0,0,0,.092-.037l1.251-.653a.354.354,0,0,1,.11-.046.145.145,0,0,1,.11.009Z" transform="translate(-347.321 -192.522)"/><path class="g" d="M308.062,302.383a.19.19,0,0,0-.092-.147l-1.27-.736a.217.217,0,0,1,.092.147l.377,1.113a.139.139,0,0,0,.074.12l1.27.736a.16.16,0,0,1-.074-.12Z" transform="translate(-301.83 -289.193)"/><path class="g" d="M305.263,223.036l-1.27-.736a1.143,1.143,0,0,1,.5.874,3.662,3.662,0,0,1-.883,2.548,3.434,3.434,0,0,1-.616.6c-.083.055-.156.11-.239.156a1.7,1.7,0,0,1-.534.212.986.986,0,0,1-.718-.092l1.27.736a.993.993,0,0,0,.718.092,1.787,1.787,0,0,0,.534-.212c.083-.046.156-.1.239-.156a3.434,3.434,0,0,0,.616-.6,3.619,3.619,0,0,0,.883-2.548A1.117,1.117,0,0,0,305.263,223.036Z" transform="translate(-297.108 -217.279)"/><path class="g" d="M272.088,288.936l-1.27-.736a2.344,2.344,0,0,0,.4.662.514.514,0,0,1-.046.34l-.552,1.564c-.074.166-.064.322.028.377l1.27.736c-.092-.055-.1-.212-.028-.377l.552-1.564a.513.513,0,0,0,.046-.34A2.344,2.344,0,0,1,272.088,288.936Z" transform="translate(-269.021 -277.117)"/><path class="g" d="M323.374,169.765a.217.217,0,0,1-.074-.018l1.27.736a.173.173,0,0,0,.074.018,3.686,3.686,0,0,1,.4-.11,2.417,2.417,0,0,1,.442-.055l.092-.147.9-1.463a.351.351,0,0,1,.083-.12.484.484,0,0,1,.129-.11.147.147,0,0,1,.074-.028.1.1,0,0,1,.074,0l.975.294c.009,0,.018.009.028.009l-1.27-.736a.034.034,0,0,0-.028-.009l-.975-.294a.1.1,0,0,0-.074,0,.63.63,0,0,0-.074.028.687.687,0,0,0-.129.11,1.339,1.339,0,0,0-.083.12l-.9,1.463-.092.147a4.134,4.134,0,0,0-.442.055C323.64,169.691,323.512,169.728,323.374,169.765Z" transform="translate(-316.903 -167.725)"/><path class="g" d="M258.319,179.214c.028-.018.055-.037.092-.064.074-.1.156-.2.239-.3.175-.212.359-.414.543-.607a.41.41,0,0,0,.009-.147l.055-1.426a.491.491,0,0,1,.129-.368.261.261,0,0,1,.092-.083l1.214-.883c.009-.009.028-.018.037-.028a.147.147,0,0,1,.074-.028.183.183,0,0,1,.1.009l-1.27-.736a.126.126,0,0,0-.1-.009.643.643,0,0,0-.074.028c-.009.009-.028.018-.037.028l-1.214.883c-.028.028-.064.055-.092.083a.5.5,0,0,0-.129.368l-.055,1.426a.41.41,0,0,1-.009.147c-.184.193-.368.4-.543.607-.083.1-.166.2-.239.3a.331.331,0,0,1-.092.064.385.385,0,0,1-.092.037.156.156,0,0,1-.092,0l-1.086-.009a.128.128,0,0,0-.083,0l-.083.028a.45.45,0,0,0-.12.11.521.521,0,0,0-.074.12l-.736,1.546c-.083.166-.064.322.018.377l.064.037.782.534.083.055a6.985,6.985,0,0,0-.267,1.113.7.7,0,0,1-.12.212.528.528,0,0,1-.1.1l-1.159,1.095c-.028.028-.064.055-.092.083a.5.5,0,0,0-.129.368l.166,1.306a.154.154,0,0,0,.064.12l1.27.736a.132.132,0,0,1-.064-.12l-.166-1.306a.491.491,0,0,1,.129-.368.261.261,0,0,1,.092-.083l1.159-1.095a.528.528,0,0,0,.1-.1.7.7,0,0,0,.12-.212,8.487,8.487,0,0,1,.267-1.113l-.083-.055-.819-.561-.037-.018c-.083-.055-.092-.2-.009-.368l.736-1.546a.52.52,0,0,1,.074-.12.653.653,0,0,1,.12-.11.147.147,0,0,1,.074-.028.128.128,0,0,1,.083,0l1.086.009a.157.157,0,0,0,.092,0A.329.329,0,0,0,258.319,179.214Z" transform="translate(-253.762 -173.908)"/><path class="h" d="M278.667,179.846a.569.569,0,0,1-.221.46l-1.159,1.095a.714.714,0,0,0-.23.313,8.485,8.485,0,0,1-.267,1.113l.083.064.819.561c.11.037.138.2.046.386L277,185.384a.556.556,0,0,1-.2.23.2.2,0,0,1-.156.028l-1.086-.009a.233.233,0,0,0-.184.037c-.028.018-.055.037-.092.064a8.312,8.312,0,0,1-.782.911.41.41,0,0,0-.009.147l-.055,1.426a.557.557,0,0,1-.221.46L273,189.57c-.166.092-.267.046-.285-.092l-.377-1.113c-.018-.1-.074-.166-.156-.166a3.71,3.71,0,0,1-.828.175l-.092.147-.9,1.463a.461.461,0,0,1-.2.23.2.2,0,0,1-.156.028l-.975-.294c-.12-.037-.138-.212-.055-.386l.552-1.564a.513.513,0,0,0,.046-.34,2.344,2.344,0,0,1-.4-.662.385.385,0,0,0-.092.037l-1.242.662c-.166.092-.276.055-.294-.083l-.166-1.306a.569.569,0,0,1,.221-.46l1.159-1.095a.714.714,0,0,0,.23-.313,8.485,8.485,0,0,1,.267-1.113l-.083-.055-.819-.561c-.11-.037-.138-.2-.046-.386l.736-1.546a.556.556,0,0,1,.2-.23.2.2,0,0,1,.156-.028l1.086.009a.233.233,0,0,0,.184-.037c.028-.018.055-.037.092-.064a9.264,9.264,0,0,1,.782-.911.41.41,0,0,0,.009-.147l.055-1.426a.569.569,0,0,1,.221-.46l1.214-.883c.009-.009.028-.018.037-.028.129-.074.23-.028.248.11l.377,1.113c.018.1.074.166.156.166a3.22,3.22,0,0,1,.828-.166l.092-.147.9-1.463a.5.5,0,0,1,.2-.23.2.2,0,0,1,.156-.028l.975.294c.12.028.138.2.055.377l-.552,1.564a.519.519,0,0,0-.046.34,2.344,2.344,0,0,1,.4.662.385.385,0,0,0,.092-.037l1.251-.653c.156-.092.267-.055.285.083Zm-5.391,5.1a3.809,3.809,0,0,0,1.509-3.146c-.12-.948-.883-1.251-1.748-.754-.083.046-.156.1-.239.156a3.809,3.809,0,0,0-1.509,3.146c.12.948.883,1.251,1.748.745a2.428,2.428,0,0,0,.239-.147Z" transform="translate(-266.124 -175.166)"/></g></g></g></svg>