<svg xmlns="http://www.w3.org/2000/svg" viewBox="0 0 40 75.982"><defs><style>.a{fill:#bfbfbf;}.b{fill:#00d9d0;}.c{fill:#00a39c;}.d{fill:#d7e7f7;}.e{fill:#9cb5cc;}.f{fill:#f8f9fc;}.g{fill:#0dd9d4;}.h{fill:#02314b;}.i{fill:#025a82;}.j{fill:#024462;}</style></defs><g transform="translate(-127.7 -25.997)"><g transform="translate(127.7 35.337)"><g transform="translate(28.327 1.82)"><path class="a" d="M295.9,93.1l-2.5-1.455a.487.487,0,0,0-.205-.445l2.5,1.455a.454.454,0,0,1,.205.445Z" transform="translate(-293.2 -91.2)"/></g><g transform="translate(27.831 1.769)"><path class="b" d="M292.8,92.44l-2.5-1.455a1.046,1.046,0,0,1,.205-.086l2.5,1.455a1.047,1.047,0,0,0-.205.086Z" transform="translate(-290.3 -90.9)"/><path class="c" d="M294,92.405l-2.5-1.455a.422.422,0,0,1,.291.034l2.5,1.455a.337.337,0,0,0-.291-.034Z" transform="translate(-291.295 -90.933)"/></g><g transform="translate(27.18)"><path class="d" d="M289,82.6l-2.5-1.455a2.712,2.712,0,0,1,.856-.342l2.5,1.455A3.192,3.192,0,0,0,289,82.6Z" transform="translate(-286.5 -80.76)"/><path class="d" d="M293.9,82.061l-2.5-1.455a1.65,1.65,0,0,1,1.164.154l2.5,1.455a1.649,1.649,0,0,0-1.164-.154Z" transform="translate(-290.561 -80.566)"/></g><g transform="translate(0 0.382)"><g transform="translate(0.086 52.46)"><path class="d" d="M131.52,392.552l-2.5-1.455a1.946,1.946,0,0,1-.822-1.8l2.5,1.455a1.983,1.983,0,0,0,.822,1.8Z" transform="translate(-128.2 -389.3)"/></g><g transform="translate(15.353 44.296)"><path class="e" d="M220.772,341.752c.616-.359,1.113-.068,1.113.633a2.456,2.456,0,0,1-1.113,1.917l-2.259,1.3c-.616.359-1.113.068-1.113-.633a2.456,2.456,0,0,1,1.113-1.917Z" transform="translate(-217.4 -341.598)"/></g><g transform="translate(2.499 1.073)"><path class="f" d="M169.48,89.451c1.558-.89,2.824-.171,2.841,1.609l.1,34.643c0,1.78-1.267,2.841-2.824,3.731L145.227,143.5c-1.558.89-2.824.171-2.824-1.609l-.1-33.5a6.237,6.237,0,0,1,2.807-4.861Zm1.455,34.232-.086-32.349c0-.445-.325-.633-.7-.411l-25.674,14.822a1.611,1.611,0,0,0-.7,1.215l.086,32.349a.428.428,0,0,0,.7.394l25.674-14.822a1.524,1.524,0,0,0,.7-1.2ZM158.526,135a2.456,2.456,0,0,0,1.113-1.917c0-.7-.5-.993-1.113-.633l-2.259,1.3a2.429,2.429,0,0,0-1.113,1.917c0,.7.5.993,1.113.633l2.259-1.3Z" transform="translate(-142.3 -89.07)"/></g><g transform="translate(3.954 2.833)"><path class="g" d="M177.176,99.446c.377-.223.7-.034.7.411l.086,32.349a1.611,1.611,0,0,1-.7,1.215l-25.674,14.822a.428.428,0,0,1-.7-.394L150.8,115.5a1.583,1.583,0,0,1,.7-1.215Z" transform="translate(-150.8 -99.352)"/></g><g transform="translate(7.343 20.254)"><path class="f" d="M181.332,201.828c2.55-1.472,4.673-.531,5.049,2.071a7.362,7.362,0,0,1,1.284-.958c2.43-1.4,4.416-.274,4.433,2.516a9.714,9.714,0,0,1-4.4,7.617l-12.666,7.309c-2.43,1.4-4.416.274-4.433-2.516a9.714,9.714,0,0,1,4.4-7.617,4.986,4.986,0,0,1,1.284-.531A11.51,11.51,0,0,1,181.332,201.828Z" transform="translate(-170.6 -201.131)"/></g><g transform="translate(0 18.947)"><path class="d" d="M130.285,228.451l-2.5-1.438L127.7,193.5l2.5,1.455Z" transform="translate(-127.7 -193.5)"/></g><g transform="translate(2.807)"><path class="d" d="M146.6,98.324l-2.5-1.455L168.456,82.8l2.516,1.455Z" transform="translate(-144.1 -82.8)"/></g><g transform="translate(0 14.069)"><path class="d" d="M130.2,177.135l-2.5-1.455a6.252,6.252,0,0,1,1.438-3.68l2.5,1.455a6.143,6.143,0,0,0-1.438,3.68Z" transform="translate(-127.7 -170.802)"/><path class="d" d="M138.6,167.653l-2.5-1.455a5.266,5.266,0,0,1,1.369-1.2l2.5,1.455a5.266,5.266,0,0,0-1.369,1.2Z" transform="translate(-134.662 -165)"/></g></g><g transform="translate(33.342 41.595)"><path class="h" d="M323.8,323.622c.154-.086.291-.017.291.154v1.181a.694.694,0,0,1-.274.5l-1.027.6c-.154.086-.291.017-.291-.154v-1.181a.659.659,0,0,1,.291-.5Z" transform="translate(-322.5 -323.585)"/></g><g transform="translate(27.283 17.944)"><g transform="translate(5.426 3.577)"><path class="h" d="M321.5,206.3v.291l-2.687,1.54-.017-.291Z" transform="translate(-318.8 -206.3)"/></g><g transform="translate(2.02 2.835)"><path class="g" d="M307.92,202.041c.291-.171.513-.034.531.291l.051,16.757a1.162,1.162,0,0,1-.513.907l-8.507,4.912c-.291.171-.513.034-.531-.291l-.051-16.757a1.162,1.162,0,0,1,.513-.907Z" transform="translate(-298.9 -201.967)"/><g transform="translate(0.753 8.929)"><path class="f" d="M307.356,254.4c.976-.565,1.78-.205,1.917.787a2.918,2.918,0,0,1,.479-.359c.924-.531,1.677-.1,1.677.959a3.705,3.705,0,0,1-1.66,2.893l-4.792,2.773c-.924.531-1.677.1-1.677-.958a3.705,3.705,0,0,1,1.66-2.893,1.617,1.617,0,0,1,.479-.205A4.323,4.323,0,0,1,307.356,254.4Z" transform="translate(-303.3 -254.135)"/></g></g><g transform="translate(1.249 0.715)"><path class="i" d="M304.156,189.755c.719-.411,1.3-.068,1.3.736l.051,20.163a2.861,2.861,0,0,1-1.3,2.242l-8.455,4.878c-.719.411-1.3.086-1.3-.736l-.051-20.163a2.861,2.861,0,0,1,1.3-2.242Zm.6,19.084-.051-16.757c0-.325-.24-.462-.531-.291l-8.507,4.912a1.136,1.136,0,0,0-.513.907l.051,16.757c0,.325.24.462.531.291l8.507-4.912a1.162,1.162,0,0,0,.513-.907Zm-3.971,5.066v-1.181c0-.188-.137-.257-.291-.154l-1.027.6a.632.632,0,0,0-.291.5v1.181c0,.188.137.257.291.154l1.027-.6a.614.614,0,0,0,.291-.5Zm-2.208-19.923v.291l2.687-1.558v-.291l-2.687,1.558Z" transform="translate(-294.4 -189.581)"/></g><path class="j" d="M297.78,185.488a.783.783,0,0,0-.531-.068,2.324,2.324,0,0,0-.394.154l-8.455,4.878a2.7,2.7,0,0,0-.633.548,2.9,2.9,0,0,0-.668,1.694l.051,20.163a.94.94,0,0,0,.377.839l1.249.719a.9.9,0,0,1-.377-.839l-.051-20.163a2.853,2.853,0,0,1,.668-1.694,2.394,2.394,0,0,1,.633-.548l8.455-4.878a1.041,1.041,0,0,1,.394-.154.7.7,0,0,1,.531.068Z" transform="translate(-287.1 -185.403)"/></g></g><g transform="translate(140.503 25.997)"><g transform="translate(19.187 3.544)"><path class="f" d="M320.659,54.916l-1.951-1.147a10.525,10.525,0,0,0-2.345-5.614A7.071,7.071,0,0,0,314.6,46.7l1.968,1.147a7.137,7.137,0,0,1,1.763,1.455,10.456,10.456,0,0,1,2.328,5.614Z" transform="translate(-314.6 -46.7)"/></g><g transform="translate(4.228)"><path class="d" d="M229.168,33.953,227.2,32.806a25.938,25.938,0,0,1,4.433-3.252,17.794,17.794,0,0,1,5.152-2.054l1.968,1.147A17.5,17.5,0,0,0,233.6,30.7a26.623,26.623,0,0,0-4.433,3.252Z" transform="translate(-227.2 -27.243)"/><path class="d" d="M285.168,27.4,283.2,26.254A12.869,12.869,0,0,1,285.442,26a8.7,8.7,0,0,1,4.5,1.113l1.968,1.147a8.539,8.539,0,0,0-4.5-1.113,10.364,10.364,0,0,0-2.242.257Z" transform="translate(-273.615 -25.997)"/></g><g transform="translate(0 3.989)"><path class="d" d="M204.468,57.961,202.5,56.814l3.406-7.514,1.968,1.147Z" transform="translate(-202.5 -49.3)"/></g><g transform="translate(1.968 1.146)"><path class="f" d="M217.406,36.684l.822,1.575a25.939,25.939,0,0,1,4.433-3.252,15.5,15.5,0,0,1,7.377-2.311,8.311,8.311,0,0,1,6.521,2.773,11.843,11.843,0,0,1,2.67,6.384l-1.951,1.455a10.526,10.526,0,0,0-2.345-5.614,7.278,7.278,0,0,0-5.734-2.448,13.754,13.754,0,0,0-6.487,2.02,23.678,23.678,0,0,0-3.646,2.619l.8,1.558L214,44.2Z" transform="translate(-214 -32.695)"/></g></g><g transform="translate(134.752 85.972)"><g transform="translate(0)"><g transform="translate(23.141 6.401)"><path class="e" d="M307.2,416.145,305.23,415l-1.13-1.2,1.968,1.147Z" transform="translate(-304.1 -413.8)"/></g><g transform="translate(20.864)"><path class="d" d="M292.768,381.535l-1.968-1.147,5.888-3.988,1.968,1.13Z" transform="translate(-290.8 -376.4)"/></g><g transform="translate(20.864 3.988)"><path class="e" d="M293.881,402.028l-1.968-1.147L290.8,399.7l1.968,1.147Z" transform="translate(-290.8 -399.7)"/></g><g transform="translate(5.357 5.169)"><path class="d" d="M202.168,443.847,200.2,442.7a8.248,8.248,0,0,0,5.973.753l1.968,1.147a8.322,8.322,0,0,1-5.973-.753Z" transform="translate(-200.2 -436.521)"/><path class="d" d="M237.068,414.679l-1.968-1.147c.171-.034.342-.068.513-.12a15.471,15.471,0,0,0,3.9-1.643,25.583,25.583,0,0,0,6.213-5.169l1.968,1.147a26.389,26.389,0,0,1-6.213,5.169,16.01,16.01,0,0,1-3.9,1.643c-.171.034-.342.086-.513.12Z" transform="translate(-229.127 -406.6)"/></g><g transform="translate(0 6.932)"><path class="e" d="M170.868,419.844,168.9,418.7l1.866-1.8,1.968,1.13Z" transform="translate(-168.9 -416.9)"/></g><g transform="translate(0.017 8.729)"><path class="f" d="M174.9,433.579l-1.968-1.147c-.017-.017-.051-.034-.068-.051A9.089,9.089,0,0,1,169,427.4l1.968,1.147a9.166,9.166,0,0,0,3.868,4.981.236.236,0,0,0,.068.051Z" transform="translate(-169 -427.4)"/></g><g transform="translate(1.985 1.13)"><path class="f" d="M201.347,387.005,207.235,383l-2.482,7.6-1.13-1.2a30.047,30.047,0,0,1-7.343,6.2,17.966,17.966,0,0,1-4.467,1.883,9.606,9.606,0,0,1-7.445-.77,9.09,9.09,0,0,1-3.868-4.981l1.866-1.814a8.074,8.074,0,0,0,3.423,4.382,8.483,8.483,0,0,0,6.555.668,15.47,15.47,0,0,0,3.9-1.643,25.584,25.584,0,0,0,6.213-5.169Z" transform="translate(-180.5 -383)"/></g></g></g></g></svg>