<svg xmlns="http://www.w3.org/2000/svg" viewBox="0 0 40 45.272"><defs><style>.a{fill:#3d9ae2;}.b{fill:#5aaae7;}.c{fill:#96c8ef;}.d{fill:#c2dff6;}.e{fill:#1e81ce;}</style></defs><g transform="translate(-35.869 0)"><path class="a" d="M67.5,109.334v32.757a2.325,2.325,0,0,1-2.325,2.325H38.194a2.325,2.325,0,0,1-2.325-2.325V109.334a2.325,2.325,0,0,1,2.325-2.325H65.175A2.325,2.325,0,0,1,67.5,109.334Z" transform="translate(0 -99.144)"/><path class="b" d="M99.906,109.334v32.053H73.17a2.325,2.325,0,0,1-2.325-2.325V107.009H97.581A2.325,2.325,0,0,1,99.906,109.334Z" transform="translate(-32.406 -99.144)"/><path class="c" d="M74.482,35.9,48.663,43.73a2.325,2.325,0,0,1-2.9-1.55L36.255,10.833a2.324,2.324,0,0,1,1.55-2.9l.5-.152L63.624.1a2.325,2.325,0,0,1,2.9,1.551l9.293,30.636.216.711A2.326,2.326,0,0,1,74.482,35.9Z" transform="translate(-0.264 0)"/><path class="d" d="M102.957,32.288,77.64,39.966a2.325,2.325,0,0,1-2.9-1.55L65.448,7.78,90.764.1a2.325,2.325,0,0,1,2.9,1.551Z" transform="translate(-27.405 0)"/><g transform="translate(45.659 9.681)"><path class="a" d="M226.919,137.729c1.043.068,1.555.135,1.794.922.205.677-.051,1.1-.807,1.328a1.445,1.445,0,0,1-1.347-.163.867.867,0,0,0-.718-.165.9.9,0,0,0-.519,1.085c.2.645,1.192,1.052,2.283.962l.083.274a.863.863,0,1,0,1.652-.5l-.089-.293a2.487,2.487,0,0,0,1.057-3.081,2.876,2.876,0,0,0-3.041-2.065l-.108-.006c-.914-.053-1.325-.1-1.488-.636a.643.643,0,0,1,.132-.7,1.7,1.7,0,0,1,.7-.381,2.065,2.065,0,0,1,1.088-.054,1.029,1.029,0,0,0,.506.007.877.877,0,0,0,.508-1.082c-.224-.739-1.352-.663-1.955-.565l-.084-.277a.863.863,0,1,0-1.652.5l.115.38a2.253,2.253,0,0,0-.957,2.726C224.572,137.577,225.874,137.661,226.919,137.729Z" transform="translate(-219.914 -131.724)"/><path class="a" d="M190.054,261.468a.689.689,0,0,0-.859-.459l-19.628,5.954a.689.689,0,1,0,.4,1.318l19.628-5.954A.689.689,0,0,0,190.054,261.468Z" transform="translate(-169.079 -251.48)"/><path class="a" d="M205.647,312.875a.689.689,0,0,0-.859-.459L185.16,318.37a.689.689,0,1,0,.4,1.318l19.628-5.954A.689.689,0,0,0,205.647,312.875Z" transform="translate(-183.525 -299.109)"/><path class="a" d="M221.24,364.281a.689.689,0,0,0-.859-.459l-19.627,5.954a.689.689,0,1,0,.4,1.318l19.628-5.954A.689.689,0,0,0,221.24,364.281Z" transform="translate(-197.973 -346.737)"/><path class="a" d="M236.833,415.689a.689.689,0,0,0-.859-.459l-19.628,5.954a.689.689,0,1,0,.4,1.318l19.628-5.954A.689.689,0,0,0,236.833,415.689Z" transform="translate(-212.42 -394.366)"/></g><path class="e" d="M72.933,31.746l-1.318.4a3.068,3.068,0,0,0-5.976.977v7.959a1.794,1.794,0,1,0,3.588,0V33.139a.538.538,0,0,0-.061-.251.552.552,0,0,0-1.045.251V39.97a.689.689,0,0,1-1.377,0V33.139a1.93,1.93,0,0,1,3.859,0v7.942a3.171,3.171,0,1,1-6.342,0V33.122a4.445,4.445,0,0,1,8.672-1.376Z" transform="translate(-26.306 -26.569)"/></g></svg>