<svg xmlns="http://www.w3.org/2000/svg" viewBox="0 0 40 40"><defs><style>.a{fill:#24dbdb;}.b{fill:#d95539;}.c{fill:#f59130;}</style></defs><path class="a" d="M195.575,148.48h4.844V141.3H193.2v2.344h4.875v2.492h-4.844v7.18h7.219v-2.344h-4.875Z" transform="translate(-178.106 -130.261)"/><path class="a" d="M322.336,145.675h-2.492V140.8H317.5v7.219h4.836v4.875h2.344V140.8h-2.344Z" transform="translate(-292.695 -129.8)"/><path class="b" d="M99.134,388.838h4.742v-9.477H96.244l-.961,3.492A16.665,16.665,0,0,1,87.33,378.4H83.4v3.922A22.182,22.182,0,0,0,99.134,388.838Z" transform="translate(-76.884 -348.838)"/><path class="a" d="M415.256,77.2H413.6v1.656h0a18.239,18.239,0,0,1,0,25.8l1.656,1.656a20.577,20.577,0,0,0,0-29.109Z" transform="translate(-381.287 -71.169)"/><path class="c" d="M9.477,174.133V166.5H0v4.742a22.21,22.21,0,0,0,6.516,15.734l3.922-3.922A16.7,16.7,0,0,1,5.984,175.1Z" transform="translate(0 -153.492)"/><path class="a" d="M76.755,0A20.427,20.427,0,0,0,62.2,6.031l1.656,1.656a18.239,18.239,0,0,1,25.8,0l1.656-1.656A20.441,20.441,0,0,0,76.755,0Z" transform="translate(-57.341)"/></svg>