<?xml version="1.0" encoding="utf-8"?>
<!-- Generator: Adobe Illustrator 21.0.0, SVG Export Plug-In . SVG Version: 6.00 Build 0)  -->
<svg version="1.1" id="Capa_1" xmlns="http://www.w3.org/2000/svg" xmlns:xlink="http://www.w3.org/1999/xlink" x="0px" y="0px"
	 viewBox="0 0 220 146" style="enable-background:new 0 0 220 146;" xml:space="preserve">
<style type="text/css">
	.st0{display:none;fill:#FFFFFF;}
	.st1{fill:#FFFFFF;}
	.st2{fill:#1E428A;}
	.st3{fill:#E2231A;}
	.st4{fill:#E4E8F1;}
	.st5{fill:#EAEAEA;}
</style>
<g>
	<path class="st0" d="M-72.9,211c0-87.6,0-175.2,0-262.8c123,0,246,0,369,0c0,87.6,0,175.2,0,262.8C173.1,211,50.1,211-72.9,211z
		 M155.8,74.8c2.6,0.3,5,0.5,7.4,0.9c7.7,1.3,12.4,5.8,13.7,13.2c0.4,2.6,0.7,5.2,0.7,7.9c0.1,4.3-1.4,8-4.3,11.1
		c-3.4,3.6-7.5,6-12.1,7.6c-1.8,0.6-3.7,1-5.6,1c-18.7,0.1-37.4,0.2-56.1,0.2c-14.8,0-29.5-0.1-44.3-0.2c-1.1,0-2.2-0.2-3.1-0.6
		c-7.9-3.2-12.7-13.4-10.2-21.5c2.6-8.5,9.1-13.6,17-13.5c2.8,0.1,4.6-1.4,4.6-3.9c0.1-2.5-1.6-4.3-4.4-4.1c-3,0.2-6.1,0.4-8.8,1.4
		c-18.4,6.6-23,30.7-8.6,44.3c4.2,4,9,6.2,15,6.2c32.4-0.1,64.8-0.1,97.2,0c4.8,0,9.1-1,13.4-2.9c4.5-2.1,8.6-4.7,12-8.4
		c5.8-6.3,7.1-13.7,6.1-21.9C184.2,79.8,179,70.9,166,68c-1.1-0.2-1.3-0.9-1.4-1.9c-0.4-3.6-0.6-7.3-1.5-10.8
		c-4.4-18.4-22.6-32.8-41-32.3c-13.8,0.4-24.9,6.6-33.9,16.9c-1.9,2.2-1.9,4.6,0,6.2c1.9,1.6,4.1,1.2,6.1-0.9
		c2.3-2.4,4.7-4.9,7.4-6.8c7-5.1,14.8-8.3,23.5-7.1c16.8,2.3,33,15.8,31.2,39C156.3,71.7,156,73.2,155.8,74.8z M76.7,75.3L76.7,75.3
		c-0.1-4.9-0.1-9.7-0.1-14.6c0-4.7,0-9.4,0-14c0-3-2.1-4.9-4.8-4.4c-2,0.4-3.2,2.1-3.2,4.7c0,18.9,0,37.8,0,56.7c0,0.4,0,0.8,0,1.3
		c0.3,2.1,1.9,3.5,3.9,3.5c2.5,0,4.1-1.8,4.1-4.9C76.7,94.2,76.7,84.7,76.7,75.3z M64,84.9c-5.1-1-12.8,2-15.7,6
		c-4.9,6.6-2.3,15.9,5.4,18.7c2.7,1,5.7,1,8.6,1.4c1.3,0.2,1.9-0.4,1.8-1.8c-0.1-7.6,0-15.1,0-22.7C64.1,86,64,85.4,64,84.9z
		 M155.5,93.9c-4.9-2.5-8-2.2-10.5,0.8c-2.4,3-2.4,7.9,0.1,10.8c2.5,3,5.6,3.3,10.1,0.9c0.4,1.9,1.9,1.3,3.1,1.2
		c0.3,0,0.7-0.9,0.7-1.3c0-6.1,0-12.2,0.1-18.3c0-1.4-0.8-1.5-1.8-1.5c-1.1,0-1.9,0.1-1.8,1.5C155.6,89.8,155.5,91.7,155.5,93.9z
		 M114.8,108c4.6,0,8.1-3.5,8-8.1c0-4.4-3.7-7.9-8.1-7.9s-7.9,3.7-7.9,8.1C106.8,104.6,110.3,108,114.8,108z M139.5,92.6
		c-3.2-0.6-3.3-0.5-3.3,2.7c0,2.2,0,4.4-0.1,6.7c-0.2,2.2-2.2,3.4-4.1,2.6c-1.4-0.6-1.8-1.8-1.9-3.2c0-2.6-0.1-5.2,0-7.7
		c0-1.4-0.9-1.2-1.7-1.1c-0.8,0-2-0.4-1.9,1.1c0.1,3.1,0,6.2,0.3,9.3c0.3,3.3,2.8,5.2,6.4,5.2s6.1-1.9,6.4-5.2
		C139.7,99.4,139.5,96.1,139.5,92.6z M96.5,95.3c-2.4-3-6.4-4.1-10.1-2.7c-3.3,1.2-5.4,4.1-5.3,7.6c0,3.6,2.2,6.5,5.6,7.5
		c3.7,1.1,7.7,0,9.6-2.6c-1.9-1.9-2-1.9-4.1-0.8c-2.3,1.1-5.1,0.6-6.5-1.2c-1.3-1.6-1.2-4.2,0.1-5.9c1.4-1.8,4.4-2.6,6.3-1.2
		C93.9,97.2,95,96.3,96.5,95.3z M183.7,33.4c0-3.1,0-5.9-0.1-8.8c0-0.4-0.7-1.1-1.2-1.1c-2.5-0.1-5-0.1-7.6,0
		c-0.4,0-1.2,0.6-1.2,0.9c-0.1,3-0.1,5.9-0.1,9C177.2,33.4,180.3,33.4,183.7,33.4z M103.8,107.5c0-6.6,0-12.9,0-19.2
		c0-1.3-0.2-2-1.7-2s-1.9,0.5-1.9,2c0.1,6,0,12.1,0,18.1c0,0.3,0.1,0.7,0.1,1.1C101.5,107.5,102.5,107.5,103.8,107.5z M167.9,45.7
		c2.5,0,4.7,0.1,6.9-0.1c0.4,0,1.1-0.7,1.1-1.1c0.1-1.9,0-3.8,0.1-5.7c0-0.9-0.4-1.3-1.3-1.2c-1.9,0-3.7-0.1-5.6,0.1
		c-0.4,0-1.1,0.7-1.2,1.1C167.8,40.9,167.9,43.2,167.9,45.7z M166.2,32.9c3.1,0,3.1,0,3-2.4c0-3.8,0.5-3.6-2.7-3.6
		c-3.5,0-3.2-0.3-3.2,2.7C163.3,33.2,162.8,32.9,166.2,32.9z"/>
	<path class="st1" d="M167.9,73.6c0.3-1.9,0.6-3.7,0.8-5.5c2.1-28.2-17.5-44.6-37.9-47.4c-10.6-1.4-20.1,2.4-28.6,8.6
		c-3.3,2.4-6.1,5.4-8.9,8.3c-2.5,2.5-5.2,3.1-7.5,1.1s-2.3-4.9,0-7.5c10.9-12.5,24.4-20,41.2-20.5c22.3-0.6,44.4,16.9,49.8,39.2
		c1,4.3,1.3,8.8,1.8,13.2c0.1,1.2,0.3,2,1.7,2.3c15.8,3.5,22.1,14.3,23.7,28.4c1.1,9.9-0.4,19-7.5,26.6c-4.1,4.5-9.1,7.7-14.6,10.2
		c-5.1,2.4-10.4,3.6-16.2,3.6c-39.3-0.1-78.6-0.1-117.9,0c-7.3,0-13.1-2.7-18.2-7.5C12,110.2,17.7,80.9,39.9,72.9
		c3.3-1.2,7.1-1.5,10.7-1.7c3.4-0.2,5.4,2,5.3,5c-0.1,3-2.2,4.8-5.6,4.7c-9.6-0.2-17.5,6.1-20.6,16.4c-3,9.9,2.8,22.2,12.3,26.1
		c1.2,0.5,2.5,0.7,3.8,0.7c17.9,0.1,35.8,0.2,53.7,0.2c22.7,0,45.4-0.1,68.1-0.3c2.3,0,4.6-0.5,6.8-1.2c5.6-1.9,10.6-4.8,14.7-9.2
		c3.5-3.8,5.4-8.3,5.2-13.5c-0.1-3.2-0.4-6.4-0.9-9.5c-1.6-9-7.3-14.5-16.6-16.1C174,74.1,171,73.9,167.9,73.6z"/>
	<path class="st1" d="M71.9,74.2c0,11.4,0,22.9,0,34.3c0,3.8-1.8,5.9-4.9,5.9c-2.5,0-4.4-1.7-4.8-4.2c-0.1-0.5-0.1-1-0.1-1.5
		c0-22.9,0-45.9,0-68.8c0-3.2,1.4-5.3,3.9-5.7c3.3-0.6,5.8,1.7,5.8,5.4c0,5.7,0,11.4,0,17C71.8,62.4,71.8,68.3,71.9,74.2
		C71.8,74.2,71.8,74.2,71.9,74.2z"/>
	<path class="st1" d="M56.5,85.9c0,0.6,0.1,1.2,0.1,1.9c0,9.2,0,18.3,0.1,27.5c0,1.8-0.6,2.5-2.2,2.2C51,117,47.3,117,44,115.9
		c-9.4-3.4-12.5-14.7-6.5-22.7C41,88.3,50.3,84.7,56.5,85.9z"/>
	<path class="st1" d="M167.6,96.7c0-2.6,0.1-4.9,0-7.3c-0.1-1.7,0.9-1.8,2.2-1.8s2.2,0.1,2.2,1.8c-0.1,7.4,0,14.8-0.1,22.3
		c0,0.6-0.5,1.6-0.9,1.6c-1.4,0.1-3.3,0.9-3.8-1.4c-5.4,2.9-9.2,2.5-12.2-1.1s-3.1-9.5-0.1-13.2C157.8,94,161.6,93.6,167.6,96.7z
		 M167.8,104.1c0-3.3-2.4-5.9-5.5-5.8c-3,0.1-5.2,2.6-5.2,5.8c0,3.2,2.3,5.8,5.3,5.8C165.3,110,167.8,107.4,167.8,104.1z"/>
	<path class="st1" d="M118.2,113.9c-5.5,0-9.7-4.2-9.7-9.6s4.3-9.8,9.6-9.8c5.4,0,9.8,4.3,9.9,9.6
		C128,109.6,123.8,113.8,118.2,113.9z M123.5,104.5c0.1-3.3-1.9-5.8-5-6s-5.5,2.2-5.7,5.4c-0.2,3.2,2,5.8,5.1,6
		C120.9,110.1,123.3,107.7,123.5,104.5z"/>
	<path class="st1" d="M148.1,95.1c0,4.2,0.2,8.3-0.1,12.4s-3.3,6.3-7.7,6.4c-4.4,0-7.4-2.2-7.8-6.3c-0.3-3.8-0.3-7.6-0.4-11.3
		c0-1.9,1.4-1.3,2.3-1.4c1,0,2.1-0.3,2.1,1.4c0,3.1,0,6.3,0,9.4c0,1.7,0.6,3.2,2.3,3.9c2.4,1,4.8-0.4,5-3.1s0.2-5.4,0.2-8.1
		C144.1,94.5,144.3,94.3,148.1,95.1z"/>
	<path class="st1" d="M95.9,98.4c-1.8,1.3-3.1,2.4-5.4,0.7c-2.3-1.7-6-0.7-7.7,1.5c-1.6,2-1.7,5.1-0.1,7.1c1.7,2.2,5.1,2.9,7.9,1.5
		c2.6-1.3,2.7-1.3,5,1c-2.3,3.2-7.1,4.5-11.6,3.2c-4.1-1.2-6.8-4.8-6.8-9.1c-0.1-4.2,2.4-7.7,6.4-9.2C88.1,93.5,93,94.7,95.9,98.4z"
		/>
	<path class="st1" d="M201.8,23.3c-4.2,0-8,0-12.1,0c0-3.7,0-7.3,0.1-10.9c0-0.4,0.9-1.1,1.4-1.1c3.1-0.1,6.1-0.1,9.2,0
		c0.5,0,1.4,0.8,1.4,1.3C201.9,16.1,201.8,19.6,201.8,23.3z"/>
	<path class="st1" d="M104.7,113.3c-1.5,0-2.8,0-4.2,0c-0.1-0.5-0.2-0.9-0.2-1.3c0-7.3,0-14.7,0-22c0-1.8,0.5-2.4,2.3-2.4
		c1.9,0,2.1,0.8,2.1,2.4C104.7,97.6,104.7,105.3,104.7,113.3z"/>
	<path class="st1" d="M182.5,38.2c0-3-0.1-5.8,0.1-8.5c0-0.5,0.9-1.3,1.4-1.3c2.2-0.1,4.5,0,6.7-0.1c1.1,0,1.6,0.4,1.6,1.5
		c0,2.3,0.1,4.6-0.1,7c0,0.5-0.8,1.3-1.3,1.4C188.2,38.3,185.5,38.2,182.5,38.2z"/>
	<path class="st1" d="M180.5,22.7c-4.1,0-3.5,0.3-3.5-3.9c0-3.7-0.3-3.3,3.9-3.3c4,0,3.2-0.3,3.3,4.3
		C184.2,22.7,184.2,22.7,180.5,22.7z"/>
	<path class="st0" d="M155.7,100c0,2.7-2,4.9-4.5,4.8c-2.4,0-4.3-2.1-4.3-4.8c0-2.7,1.9-4.7,4.3-4.8
		C153.7,95.2,155.7,97.3,155.7,100z"/>
	<path class="st0" d="M119.2,100.3c-0.1,2.7-2.1,4.6-4.6,4.5s-4.3-2.3-4.2-4.9c0.1-2.7,2.2-4.6,4.7-4.4
		C117.6,95.5,119.3,97.5,119.2,100.3z"/>
</g>
<rect x="65.4" y="153.9" class="st2" width="24" height="20.9"/>
<rect x="91.4" y="154.3" class="st3" width="27.8" height="20.5"/>
<rect x="121.3" y="154.7" class="st4" width="23.7" height="20"/>
<rect x="147.2" y="155" class="st5" width="23.7" height="20"/>
<rect x="174.5" y="154.7" class="st1" width="23.7" height="20"/>
<rect x="201.3" y="154.2" class="st5" width="23.7" height="20"/>
</svg>
